<svg width="72" height="72" viewBox="0 0 72 72" fill="none" xmlns="http://www.w3.org/2000/svg">
<g style="mix-blend-mode:darken">
<circle cx="35" cy="37" r="34.5" fill="white"/>
<circle cx="35" cy="37" r="34.5" stroke="black"/>
</g>
<g style="mix-blend-mode:darken">
<circle cx="37" cy="37" r="34.5" fill="white"/>
<circle cx="37" cy="37" r="34.5" stroke="black"/>
</g>
<g style="mix-blend-mode:darken">
<path d="M70.5 35C70.5 54.0606 55.2709 69.5 36.5 69.5C17.7291 69.5 2.5 54.0606 2.5 35C2.5 15.9394 17.7291 0.5 36.5 0.5C55.2709 0.5 70.5 15.9394 70.5 35Z" fill="white"/>
<path d="M70.5 35C70.5 54.0606 55.2709 69.5 36.5 69.5C17.7291 69.5 2.5 54.0606 2.5 35C2.5 15.9394 17.7291 0.5 36.5 0.5C55.2709 0.5 70.5 15.9394 70.5 35Z" stroke="black"/>
</g>
<path d="M18.1426 16.7229C18.416 16.6144 18.965 16.3974 19.4359 16.0719C19.9111 15.7464 20.3082 15.3146 20.6467 15.0216C20.983 14.7309 21.2586 14.5833 21.5233 14.4683C21.7902 14.3533 22.0528 14.2752 22.3349 14.2123C22.6148 14.1493 22.9099 14.1038 23.0878 14.0061C23.2636 13.9085 23.3222 13.7609 23.3157 13.5222C23.3092 13.2814 23.2419 12.9516 23.2029 12.587C23.1638 12.2224 23.1508 11.8232 23.1812 11.463C23.2094 11.1049 23.2788 10.7838 23.3526 10.556C23.4285 10.3281 23.5066 10.1914 23.6716 10.2435C23.8365 10.2956 24.0882 10.5343 24.3833 10.8771C24.6783 11.2199 25.0212 11.6648 25.3055 12.0793C25.5919 12.4959 25.8198 12.8843 26.0303 13.2315C26.2408 13.5787 26.4361 13.8868 26.5836 14.0799C26.7312 14.273 26.8331 14.3533 26.9894 14.4032C27.1434 14.4553 27.3474 14.4792 27.5362 14.5291C27.725 14.5811 27.8942 14.6593 28.0548 14.7569C28.2154 14.8546 28.3629 14.9674 28.4714 15.0303C28.5778 15.0933 28.6472 15.1041 28.8078 14.9717C28.9662 14.8415 29.2179 14.566 29.5543 14.2535C29.8906 13.941 30.3138 13.5873 30.6892 13.2943C31.0667 13.0036 31.3965 12.7757 31.6938 12.5696C31.9889 12.3634 32.2537 12.1833 32.4121 12.0922C32.5727 12.0011 32.6291 12.0011 32.6573 12.281C32.6855 12.5609 32.6855 13.1186 32.6508 13.9518C32.6161 14.7829 32.5466 15.8896 32.4555 16.7337C32.3644 17.5777 32.2515 18.1593 32.1474 18.6041C32.0432 19.049 31.9521 19.3571 31.874 19.637C31.7937 19.917 31.7264 20.1665 31.7156 20.6417C31.7047 21.1148 31.7503 21.8113 31.7676 22.5751C31.785 23.339 31.7741 24.1722 31.7221 24.8558C31.67 25.5393 31.5789 26.0774 31.4986 26.6243C31.4183 27.1711 31.351 27.7309 31.3402 28.2213C31.3293 28.7117 31.3749 29.1348 31.4443 29.5732C31.5116 30.0115 31.6027 30.4694 31.8154 30.9012C32.0259 31.3352 32.3579 31.7453 32.8591 32.1901C33.3604 32.6349 34.033 33.1145 34.7925 33.6787C35.5498 34.2429 36.3961 34.8938 37.2901 35.8009C38.1863 36.7079 39.1324 37.871 39.8745 39.097C40.6166 40.323 41.1526 41.6119 41.5518 42.838C41.9533 44.0661 42.2136 45.2292 42.3677 46.4183C42.5218 47.6096 42.5674 48.8313 42.563 49.9488C42.5565 51.0685 42.5001 52.0819 42.409 52.8631C42.3178 53.6443 42.192 54.1932 42.1139 54.5447C42.0336 54.8984 41.9989 55.0568 42.0661 55.1328C42.1356 55.2066 42.307 55.1957 42.7778 55.0134C43.253 54.8312 44.0255 54.4775 44.7286 53.8785C45.4295 53.2797 46.0566 52.4355 46.4689 51.535C46.879 50.6345 47.0743 49.6753 47.1134 48.6729C47.1524 47.6704 47.0396 46.6201 46.6685 45.3203C46.2975 44.0206 45.6703 42.469 44.8827 40.872C44.0951 39.2749 43.1489 37.6323 42.2376 36.0829C41.324 34.5314 40.4473 33.0711 39.6554 31.576C38.8612 30.0831 38.156 28.5533 37.6721 27.0039C37.1882 25.4524 36.9234 23.8792 36.8627 22.4753C36.7998 21.0714 36.9365 19.841 37.2316 18.6085C37.5267 17.376 37.9846 16.1435 38.6182 15.0563C39.2518 13.9671 40.0612 13.0209 40.9269 12.268C41.7949 11.515 42.7193 10.9552 43.6133 10.5972C44.5008 10.2391 45.3688 10.0786 46.2302 10.0221C47.0917 9.9657 47.9466 10.0113 48.8493 10.2283C49.7498 10.4452 50.6959 10.8336 51.514 11.3696C52.3299 11.9056 53.0134 12.5891 53.5667 13.5135C54.1201 14.438 54.5432 15.601 54.7363 16.5319C54.9316 17.4607 54.8947 18.1572 54.7255 18.8993C54.5519 19.6414 54.2459 20.4269 53.8749 21.0605C53.5039 21.6941 53.072 22.1737 52.5816 22.56C52.0891 22.9462 51.5444 23.2435 50.9563 23.3932C50.3683 23.5408 49.7412 23.5408 49.177 23.3932C48.6107 23.2435 48.1094 22.9484 47.7839 22.5838C47.4584 22.2193 47.3087 21.7853 47.2545 21.3817C47.1959 20.9759 47.2328 20.6005 47.4259 20.2685C47.6212 19.9365 47.9727 19.6522 48.3568 19.3094C48.7387 18.9665 49.151 18.5673 49.3485 18.1528C49.5481 17.7362 49.5373 17.3022 49.4461 16.9159C49.355 16.5275 49.1836 16.1868 48.8711 15.8961C48.5586 15.6053 48.1008 15.3645 47.5539 15.2733C47.0071 15.1822 46.367 15.2386 45.8201 15.3818C45.2733 15.525 44.8155 15.7529 44.3533 16.1456C43.8911 16.5406 43.4245 17.0982 43.1056 17.6754C42.7866 18.2505 42.6152 18.845 42.472 19.6783C42.3288 20.5115 42.2138 21.5835 42.3461 22.7922C42.4763 24.0008 42.8539 25.3484 43.3508 26.6308C43.8455 27.9154 44.4618 29.1349 45.2321 30.4694C46.0024 31.8039 46.9268 33.2513 47.747 34.5532C48.5695 35.853 49.2855 37.0075 49.943 38.2725C50.5983 39.5397 51.1907 40.9198 51.6703 42.3454C52.1498 43.7711 52.5144 45.2423 52.6294 46.72C52.7422 48.1955 52.6077 49.6798 52.4471 50.7626C52.2866 51.8454 52.1043 52.5311 51.7441 53.3339C51.386 54.139 50.8479 55.0612 50.3532 55.7339C49.8563 56.4065 49.3984 56.8297 48.8364 57.2723C48.2722 57.7172 47.5973 58.1859 46.8813 58.5613C46.1608 58.9388 45.397 59.2231 44.3902 59.4336C43.3812 59.6462 42.127 59.7829 40.6883 59.8567C39.2496 59.9305 37.6308 59.9413 35.7256 59.9543C33.8204 59.9652 31.631 59.976 30.1078 59.9826C28.5845 59.9891 27.7296 59.9891 27.1199 59.9652C26.5101 59.9435 26.1434 59.8979 25.9112 59.7547C25.6768 59.6115 25.5749 59.3728 25.5749 59.0517C25.5749 58.7327 25.6768 58.3334 25.87 58.0427C26.0631 57.7519 26.3495 57.5696 26.6859 57.472C27.0222 57.3765 27.4106 57.3635 27.4974 57.1248C27.582 56.8839 27.3672 56.4174 27.2631 55.7274C27.1589 55.0373 27.1719 54.1238 27.2696 53.3838C27.3672 52.6417 27.5495 52.071 27.7838 51.5589C28.0182 51.0446 28.3046 50.5889 28.6388 50.1897C28.9752 49.7904 29.3636 49.4476 29.7585 49.1677C30.1512 48.8878 30.5505 48.6708 30.9324 48.495C31.3143 48.3193 31.6811 48.1826 31.783 48.0741C31.885 47.9656 31.7244 47.8853 31.3317 47.9482C30.9389 48.0111 30.3097 48.2151 29.8149 48.393C29.318 48.5688 28.9534 48.7185 28.4847 49.044C28.0182 49.3695 27.4475 49.8708 26.9961 50.4762C26.5448 51.0816 26.215 51.7868 26.037 52.3597C25.8612 52.9303 25.8374 53.3643 25.833 53.7354C25.8265 54.1065 25.8395 54.4146 25.8678 54.6642C25.896 54.9159 25.9415 55.109 25.9242 55.2978C25.9068 55.4865 25.8265 55.6688 25.6746 55.8728C25.5227 56.0768 25.2927 56.3046 25.0605 56.6236C24.8262 56.9426 24.5853 57.3527 24.3813 57.7867C24.1752 58.2207 24.0037 58.6764 23.8801 59.0258C23.7542 59.373 23.6739 59.6138 23.3658 59.7614C23.0577 59.9089 22.5217 59.9654 21.8078 59.9892C21.0961 60.0109 20.2042 60.0001 19.6009 59.9545C18.9955 59.9089 18.6765 59.8287 18.5008 59.527C18.325 59.2232 18.2903 58.7003 18.4617 58.3075C18.6331 57.9126 19.0085 57.65 19.3752 57.4743C19.7398 57.2985 20.0957 57.2074 20.3452 57.0012C20.5969 56.7951 20.7444 56.4783 20.8681 56.066C20.9962 55.6559 21.096 55.1546 21.1719 54.0935C21.2457 53.0324 21.2913 51.4137 21.2804 50.0228C21.2696 48.6318 21.2001 47.4666 21.1546 46.6854C21.109 45.9043 21.0873 45.505 20.8681 44.9799C20.6512 44.4547 20.2389 43.8037 19.8591 43.207C19.4772 42.6081 19.1235 42.0613 18.657 41.1261C18.1883 40.1908 17.6067 38.8693 17.2943 37.4545C16.9818 36.0397 16.9362 34.5338 17.0729 33.1819C17.2096 31.8301 17.5286 30.6323 17.8997 29.6688C18.2708 28.7054 18.6939 27.9741 19.1561 27.3144C19.6183 26.6526 20.1195 26.0581 20.4558 25.4722C20.7922 24.8863 20.9636 24.3026 20.9701 23.8013C20.9766 23.3001 20.816 22.8769 20.5882 22.5016C20.3603 22.124 20.0631 21.7942 19.7484 21.4969C19.436 21.1996 19.1039 20.9371 18.8089 20.5573C18.5116 20.1754 18.249 19.672 18.0884 19.1642C17.93 18.6565 17.8714 18.1422 17.8541 17.7559C17.8367 17.3675 17.8606 17.1049 17.8714 16.9748C17.8693 16.8316 17.8692 16.8314 18.1426 16.7229Z" fill="black"/>
</svg>
