<svg width="233" height="72" viewBox="0 0 233 72" fill="none" xmlns="http://www.w3.org/2000/svg">
<path d="M76.91 40.86C76.71 40.64 76.58 40.45 76.52 40.29C76.46 40.15 76.45 39.97 76.49 39.75C76.55 39.55 76.63 39.26 76.73 38.88C76.89 38.24 77.06 37.71 77.24 37.29C77.44 36.85 77.63 36.4 77.81 35.94C78.01 35.46 78.18 34.85 78.32 34.11C78.64 33.37 78.92 32.67 79.16 32.01C79.42 31.35 79.62 30.81 79.76 30.39C79.9 29.97 79.97 29.76 79.97 29.76C79.99 29.68 80.08 29.47 80.24 29.13C80.4 28.79 80.6 28.38 80.84 27.9C81.1 27.4 81.34 26.9 81.56 26.4C81.9 25.44 82.17 24.62 82.37 23.94C82.59 23.24 82.81 22.61 83.03 22.05C83.25 21.49 83.54 20.94 83.9 20.4C84.14 19.98 84.42 19.71 84.74 19.59C85.06 19.47 85.36 19.48 85.64 19.62C85.94 19.74 86.15 20 86.27 20.4C86.37 20.6 86.45 20.84 86.51 21.12C86.59 21.4 86.66 21.81 86.72 22.35C86.78 22.87 86.82 23.61 86.84 24.57C86.88 25.71 86.89 26.84 86.87 27.96C86.85 29.06 86.85 30.08 86.87 31.02C86.91 31.96 87.02 32.76 87.2 33.42C87.26 33.78 87.34 34.22 87.44 34.74C87.56 35.24 87.68 35.74 87.8 36.24C87.94 36.74 88.07 37.16 88.19 37.5C88.33 37.84 88.44 38.01 88.52 38.01C88.62 38.01 88.75 37.88 88.91 37.62C89.09 37.36 89.31 36.89 89.57 36.21C89.85 35.53 90.18 34.57 90.56 33.33C90.94 32.07 91.37 30.46 91.85 28.5C91.95 28.16 92.08 27.61 92.24 26.85C92.42 26.09 92.55 25.32 92.63 24.54C92.77 24.04 92.91 23.49 93.05 22.89C93.19 22.29 93.31 21.76 93.41 21.3C93.53 20.84 93.59 20.58 93.59 20.52C93.59 20.38 93.59 20.26 93.59 20.16C93.61 20.06 93.61 19.96 93.59 19.86C93.69 19.86 93.78 19.73 93.86 19.47C93.94 19.19 93.98 18.95 93.98 18.75C93.98 18.41 94.02 18.14 94.1 17.94C94.2 17.72 94.3 17.56 94.4 17.46C94.46 17.3 94.61 17.23 94.85 17.25C95.09 17.25 95.33 17.31 95.57 17.43C95.81 17.55 95.96 17.71 96.02 17.91C96.06 18.13 96 18.63 95.84 19.41C95.7 20.17 95.48 21.2 95.18 22.5C95.18 22.72 95.12 23.08 95 23.58C94.88 24.08 94.75 24.61 94.61 25.17C94.49 25.73 94.4 26.21 94.34 26.61C94.26 27.13 94.17 27.62 94.07 28.08C93.97 28.52 93.87 28.73 93.77 28.71C93.25 30.97 92.7 32.9 92.12 34.5C91.56 36.08 91.06 37.37 90.62 38.37C90.14 39.47 89.61 40.13 89.03 40.35C88.47 40.59 87.87 40.3 87.23 39.48C86.85 38.96 86.55 38.45 86.33 37.95C86.11 37.43 85.93 36.83 85.79 36.15C85.65 35.45 85.48 34.59 85.28 33.57C84.98 32.75 84.81 31.92 84.77 31.08C84.75 30.24 84.78 29.38 84.86 28.5C84.94 27.6 85 26.67 85.04 25.71C85.02 24.75 84.98 24.11 84.92 23.79C84.86 23.47 84.74 23.49 84.56 23.85C84.4 24.19 84.13 24.89 83.75 25.95C83.61 26.33 83.42 26.79 83.18 27.33C82.96 27.87 82.74 28.41 82.52 28.95C82.3 29.47 82.11 29.93 81.95 30.33C81.79 30.71 81.69 30.95 81.65 31.05C81.53 31.29 81.39 31.61 81.23 32.01C81.07 32.39 80.94 32.8 80.84 33.24C80.12 35.12 79.58 36.62 79.22 37.74C78.88 38.86 78.63 39.64 78.47 40.08C78.27 40.64 78.06 41.01 77.84 41.19C77.62 41.39 77.31 41.28 76.91 40.86ZM98.889 39.72C98.269 39.68 97.719 39.49 97.239 39.15C96.779 38.81 96.289 38.46 95.769 38.1C95.429 37.76 95.159 37.4 94.959 37.02C94.759 36.62 94.599 36.1 94.479 35.46C94.399 35.08 94.399 34.6 94.479 34.02C94.559 33.44 94.689 32.86 94.869 32.28C95.049 31.68 95.219 31.2 95.379 30.84C95.619 30.28 95.919 29.68 96.279 29.04C96.659 28.38 97.029 27.76 97.389 27.18C97.769 26.58 98.069 26.1 98.289 25.74C98.429 25.6 98.489 25.53 98.469 25.53C98.469 25.51 98.469 25.5 98.469 25.5C98.469 25.4 98.569 25.15 98.769 24.75C98.989 24.33 99.179 23.96 99.339 23.64C99.639 23.32 99.809 23.06 99.849 22.86C99.889 22.66 99.859 22.5 99.759 22.38C99.719 22.3 99.789 22.16 99.969 21.96C100.149 21.76 100.419 21.53 100.779 21.27C101.139 21.01 101.549 20.75 102.009 20.49C102.489 20.11 102.949 19.91 103.389 19.89C103.849 19.85 104.119 19.94 104.199 20.16C104.199 20.22 104.309 20.24 104.529 20.22C104.769 20.18 105.039 20.13 105.339 20.07C105.659 19.99 105.939 19.93 106.179 19.89C106.279 19.77 106.509 19.68 106.869 19.62C107.249 19.54 107.689 19.47 108.189 19.41C108.449 19.43 108.699 19.44 108.939 19.44C109.199 19.42 109.409 19.4 109.569 19.38C109.749 19.36 109.839 19.35 109.839 19.35C109.979 19.31 110.139 19.33 110.319 19.41C110.519 19.49 110.699 19.71 110.859 20.07C110.999 20.43 110.949 20.7 110.709 20.88C110.489 21.06 109.969 21.2 109.149 21.3C108.549 21.38 108.029 21.45 107.589 21.51C107.149 21.55 106.689 21.61 106.209 21.69C105.729 21.75 105.139 21.86 104.439 22.02C103.939 22.12 103.529 22.24 103.209 22.38C102.889 22.5 102.609 22.69 102.369 22.95C102.129 23.19 101.859 23.54 101.559 24C101.419 24.1 101.239 24.36 101.019 24.78C100.799 25.2 100.579 25.62 100.359 26.04C99.799 26.82 99.309 27.5 98.889 28.08C98.489 28.64 98.329 28.97 98.409 29.07C98.409 29.07 98.519 29.1 98.739 29.16C98.959 29.22 99.109 29.25 99.189 29.25C99.389 29.15 99.629 29.08 99.909 29.04C100.209 29 100.449 28.96 100.629 28.92C101.869 28.6 102.839 28.35 103.539 28.17C104.259 27.99 104.799 27.86 105.159 27.78C105.539 27.68 105.829 27.62 106.029 27.6C106.309 27.38 106.579 27.34 106.839 27.48C107.119 27.62 107.339 27.84 107.499 28.14C107.599 28.36 107.599 28.55 107.499 28.71C107.419 28.87 107.169 29.03 106.749 29.19C106.349 29.35 105.749 29.54 104.949 29.76C104.149 29.98 103.099 30.27 101.799 30.63C100.699 30.95 99.759 31.14 98.979 31.2C98.199 31.26 97.829 31.09 97.869 30.69C97.729 30.61 97.569 30.71 97.389 30.99C97.229 31.25 97.069 31.61 96.909 32.07C96.749 32.53 96.609 33.02 96.489 33.54C96.389 34.06 96.319 34.55 96.279 35.01C96.259 35.45 96.289 35.78 96.369 36C96.529 36.46 96.739 36.83 96.999 37.11C97.259 37.37 97.729 37.6 98.409 37.8C98.809 37.82 99.199 37.85 99.579 37.89C99.959 37.93 100.389 37.85 100.869 37.65C102.049 37.45 102.979 37.24 103.659 37.02C104.339 36.8 104.729 36.65 104.829 36.57C104.989 36.49 105.089 36.45 105.129 36.45C105.189 36.43 105.269 36.42 105.369 36.42C105.309 36.52 105.329 36.53 105.429 36.45C105.549 36.35 105.709 36.2 105.909 36C106.129 35.8 106.419 35.61 106.779 35.43C107.139 35.25 107.459 35.11 107.739 35.01C108.039 34.91 108.199 34.91 108.219 35.01C108.339 35.21 108.319 35.49 108.159 35.85C107.999 36.19 107.709 36.57 107.289 36.99C106.869 37.39 106.329 37.78 105.669 38.16C104.609 38.72 103.459 39.11 102.219 39.33C100.979 39.57 99.869 39.7 98.889 39.72ZM123.708 40.17C123.628 40.17 123.478 40.14 123.258 40.08C123.038 40.02 122.778 39.92 122.478 39.78C122.198 39.64 121.928 39.46 121.668 39.24C121.408 39.02 121.198 38.75 121.038 38.43C120.898 38.25 120.678 38 120.378 37.68C120.078 37.36 119.818 37.07 119.598 36.81C118.858 36.07 118.228 35.39 117.708 34.77C117.208 34.15 116.808 33.62 116.508 33.18C116.268 32.94 116.038 32.71 115.818 32.49C115.618 32.25 115.428 32.05 115.248 31.89C115.068 31.71 114.898 31.6 114.738 31.56C114.638 31.64 114.548 31.76 114.468 31.92C114.388 32.08 114.318 32.33 114.258 32.67C114.118 32.97 113.988 33.34 113.868 33.78C113.748 34.22 113.658 34.56 113.598 34.8C113.438 35.16 113.308 35.52 113.208 35.88C113.128 36.22 113.048 36.52 112.968 36.78C112.888 37.04 112.808 37.25 112.728 37.41C112.668 37.57 112.598 37.69 112.518 37.77C112.518 37.77 112.488 37.91 112.428 38.19C112.368 38.45 112.308 38.7 112.248 38.94C112.048 39.92 111.858 40.47 111.678 40.59C111.518 40.73 111.178 40.58 110.658 40.14C110.518 39.88 110.398 39.67 110.298 39.51C110.198 39.35 110.148 39.23 110.148 39.15C110.148 39.15 110.208 38.98 110.328 38.64C110.448 38.28 110.578 37.86 110.718 37.38C110.818 37.04 110.958 36.6 111.138 36.06C111.338 35.5 111.538 34.91 111.738 34.29C111.938 33.65 112.128 33.04 112.308 32.46C112.488 31.86 112.628 31.35 112.728 30.93C112.808 30.85 112.848 30.77 112.848 30.69C112.868 30.61 112.878 30.5 112.878 30.36C112.918 30.24 113.018 29.96 113.178 29.52C113.338 29.06 113.528 28.55 113.748 27.99C113.968 27.41 114.178 26.87 114.378 26.37C114.598 25.85 114.778 25.48 114.918 25.26C114.998 25.1 115.038 24.96 115.038 24.84C115.058 24.72 115.068 24.66 115.068 24.66C115.068 24.48 115.158 24.37 115.338 24.33C115.338 24.23 115.338 24.13 115.338 24.03C115.358 23.93 115.408 23.84 115.488 23.76C115.548 23.6 115.668 23.29 115.848 22.83C116.028 22.37 116.208 21.87 116.388 21.33C116.588 20.77 116.758 20.28 116.898 19.86C117.038 19.44 117.108 19.21 117.108 19.17C117.108 19.07 117.138 18.99 117.198 18.93C117.258 18.85 117.318 18.77 117.378 18.69C117.578 18.53 117.778 18.46 117.978 18.48C118.198 18.48 118.408 18.55 118.608 18.69C118.828 18.83 119.018 19.03 119.178 19.29C119.178 19.37 119.148 19.55 119.088 19.83C119.028 20.11 118.928 20.42 118.788 20.76C118.648 21.1 118.518 21.4 118.398 21.66C118.278 21.92 118.218 22.05 118.218 22.05C118.218 22.05 118.098 22.38 117.858 23.04C117.638 23.68 117.358 24.45 117.018 25.35C116.618 26.17 116.288 26.91 116.028 27.57C115.788 28.21 115.708 28.57 115.788 28.65C115.788 28.65 116.058 28.45 116.598 28.05C117.138 27.63 117.728 27.11 118.368 26.49C118.888 25.97 119.458 25.47 120.078 24.99C120.698 24.49 121.328 24.01 121.968 23.55C122.888 22.93 123.578 22.47 124.038 22.17C124.518 21.85 124.878 21.64 125.118 21.54C125.358 21.42 125.588 21.36 125.808 21.36C126.068 21.26 126.238 21.25 126.318 21.33C126.398 21.39 126.558 21.49 126.798 21.63C126.878 21.77 126.948 21.91 127.008 22.05C127.088 22.17 127.128 22.23 127.128 22.23C127.148 22.43 127.038 22.62 126.798 22.8C126.558 22.98 126.208 23.19 125.748 23.43C125.248 23.75 124.638 24.17 123.918 24.69C123.218 25.19 122.488 25.74 121.728 26.34C120.988 26.94 120.288 27.53 119.628 28.11C118.968 28.69 118.408 29.21 117.948 29.67C117.508 30.11 117.248 30.44 117.168 30.66C117.028 30.8 116.978 30.94 117.018 31.08C117.078 31.22 117.298 31.47 117.678 31.83C117.958 32.17 118.178 32.45 118.338 32.67C118.498 32.87 118.578 32.97 118.578 32.97C118.578 33.01 118.688 33.15 118.908 33.39C119.128 33.63 119.388 33.9 119.688 34.2C120.008 34.5 120.298 34.78 120.558 35.04C120.638 35.24 120.858 35.52 121.218 35.88C121.578 36.22 121.918 36.64 122.238 37.14C123.198 38.14 123.808 38.89 124.068 39.39C124.348 39.89 124.228 40.15 123.708 40.17ZM128.939 38.82C127.899 38.44 127.159 37.76 126.719 36.78C126.299 35.8 126.219 34.55 126.479 33.03C126.519 32.45 126.609 31.93 126.749 31.47C126.909 31.01 127.029 30.55 127.109 30.09C127.109 30.05 127.129 29.99 127.169 29.91C127.209 29.81 127.219 29.72 127.199 29.64C127.239 29.52 127.329 29.3 127.469 28.98C127.609 28.64 127.749 28.32 127.889 28.02C128.029 27.7 128.119 27.52 128.159 27.48C128.259 27.44 128.309 27.39 128.309 27.33C128.309 27.25 128.309 27.21 128.309 27.21C128.309 27.05 128.419 26.76 128.639 26.34C128.859 25.92 129.139 25.46 129.479 24.96C129.839 24.44 130.199 23.94 130.559 23.46C130.919 22.98 131.239 22.58 131.519 22.26C131.799 21.94 131.979 21.78 132.059 21.78C132.119 21.78 132.169 21.74 132.209 21.66C132.249 21.58 132.289 21.53 132.329 21.51C132.389 21.43 132.539 21.32 132.779 21.18C133.039 21.04 133.339 20.89 133.679 20.73C134.019 20.57 134.359 20.42 134.699 20.28C135.059 20.14 135.389 20.04 135.689 19.98C136.569 19.66 137.299 19.65 137.879 19.95C138.459 20.23 138.899 20.79 139.199 21.63C139.519 22.47 139.689 23.57 139.709 24.93C139.629 25.37 139.579 25.79 139.559 26.19C139.559 26.57 139.529 26.85 139.469 27.03C139.449 27.47 139.379 27.97 139.259 28.53C139.139 29.09 139.019 29.58 138.899 30C138.779 30.4 138.689 30.61 138.629 30.63C138.629 30.71 138.609 30.79 138.569 30.87C138.529 30.93 138.509 30.99 138.509 31.05C138.529 31.15 138.459 31.38 138.299 31.74C138.139 32.1 137.949 32.5 137.729 32.94C137.509 33.38 137.309 33.76 137.129 34.08C136.949 34.4 136.839 34.56 136.799 34.56C136.799 34.56 136.779 34.57 136.739 34.59C136.699 34.59 136.689 34.63 136.709 34.71C136.729 34.75 136.659 34.85 136.499 35.01C136.339 35.17 136.159 35.33 135.959 35.49C135.779 35.63 135.639 35.7 135.539 35.7C135.539 35.7 135.519 35.71 135.479 35.73C135.459 35.75 135.479 35.79 135.539 35.85C135.559 35.89 135.419 36.04 135.119 36.3C134.839 36.54 134.479 36.82 134.039 37.14C133.599 37.44 133.149 37.73 132.689 38.01C132.249 38.27 131.879 38.43 131.579 38.49C131.519 38.57 131.459 38.62 131.399 38.64C131.339 38.64 131.259 38.65 131.159 38.67C131.019 38.81 130.809 38.91 130.529 38.97C130.269 39.03 129.989 39.04 129.689 39C129.409 38.98 129.159 38.92 128.939 38.82ZM131.489 36.6C131.889 36.46 132.329 36.23 132.809 35.91C133.289 35.57 133.719 35.22 134.099 34.86C134.499 34.48 134.739 34.16 134.819 33.9C134.879 33.68 134.939 33.52 134.999 33.42C135.079 33.3 135.159 33.21 135.239 33.15C135.399 32.99 135.599 32.69 135.839 32.25C136.099 31.81 136.349 31.32 136.589 30.78C136.829 30.24 137.029 29.74 137.189 29.28C137.369 28.8 137.469 28.45 137.489 28.23C137.489 28.19 137.519 28.02 137.579 27.72C137.639 27.42 137.709 27.2 137.789 27.06C137.829 26.98 137.859 26.88 137.879 26.76C137.899 26.62 137.919 26.35 137.939 25.95C137.959 25.55 137.979 24.91 137.999 24.03C137.979 23.31 137.939 22.77 137.879 22.41C137.839 22.05 137.739 21.83 137.579 21.75C137.539 21.71 137.399 21.69 137.159 21.69C136.919 21.69 136.669 21.71 136.409 21.75C136.149 21.77 135.949 21.81 135.809 21.87C135.709 21.89 135.609 21.94 135.509 22.02C135.409 22.08 135.299 22.11 135.179 22.11C135.019 22.19 134.899 22.29 134.819 22.41C134.739 22.53 134.699 22.62 134.699 22.68C134.699 22.84 134.629 22.99 134.489 23.13C134.349 23.25 134.189 23.26 134.009 23.16C133.689 23.18 133.449 23.24 133.289 23.34C133.129 23.42 132.979 23.57 132.839 23.79C132.719 24.01 132.529 24.34 132.269 24.78C131.709 25.22 131.309 25.65 131.069 26.07C130.829 26.49 130.689 26.81 130.649 27.03C130.229 27.79 129.909 28.38 129.689 28.8C129.469 29.2 129.309 29.56 129.209 29.88C129.129 30.2 129.059 30.59 128.999 31.05C128.819 31.39 128.689 31.75 128.609 32.13C128.529 32.51 128.459 32.76 128.399 32.88C128.359 32.98 128.329 33.19 128.309 33.51C128.289 33.83 128.279 34.19 128.279 34.59C128.279 34.99 128.289 35.36 128.309 35.7C128.349 36.02 128.399 36.24 128.459 36.36C128.579 36.82 128.899 37.07 129.419 37.11C129.959 37.15 130.649 36.98 131.489 36.6ZM147.196 39.63C146.376 39.83 145.526 39.82 144.646 39.6C143.786 39.38 143.026 38.99 142.366 38.43C141.706 37.87 141.246 37.19 140.986 36.39C140.906 36.17 140.836 35.97 140.776 35.79C140.736 35.61 140.756 35.52 140.836 35.52C141.036 35.52 141.046 35.42 140.866 35.22C140.806 35.14 140.776 35.01 140.776 34.83C140.796 34.65 140.836 34.48 140.896 34.32C140.976 34.16 141.066 34.08 141.166 34.08C141.306 34.08 141.456 34.13 141.616 34.23C141.776 34.33 141.896 34.44 141.976 34.56C142.076 34.66 142.086 34.74 142.006 34.8C142.006 34.8 142.046 34.91 142.126 35.13C142.206 35.33 142.226 35.57 142.186 35.85C142.366 36.15 142.516 36.4 142.636 36.6C142.756 36.78 143.006 36.98 143.386 37.2C143.646 37.4 143.876 37.55 144.076 37.65C144.276 37.75 144.626 37.81 145.126 37.83C145.446 37.83 145.706 37.79 145.906 37.71C146.106 37.63 146.286 37.49 146.446 37.29C146.626 37.09 146.836 36.82 147.076 36.48C147.136 36.1 147.056 35.49 146.836 34.65C146.636 33.81 146.336 32.83 145.936 31.71C145.536 30.57 145.056 29.38 144.496 28.14C144.376 27.92 144.266 27.69 144.166 27.45C144.086 27.21 144.046 27.09 144.046 27.09C144.106 26.71 144.086 26.36 143.986 26.04C143.866 25.94 143.796 25.71 143.776 25.35C143.776 24.97 143.756 24.63 143.716 24.33C143.756 23.89 143.796 23.55 143.836 23.31C143.876 23.07 144.006 22.79 144.226 22.47C144.806 21.63 145.516 20.93 146.356 20.37C147.196 19.79 148.266 19.4 149.566 19.2C149.786 19.16 150.066 19.14 150.406 19.14C150.746 19.12 151.096 19.13 151.456 19.17C151.816 19.19 152.136 19.23 152.416 19.29C152.716 19.33 152.936 19.4 153.076 19.5C153.556 19.74 153.936 20 154.216 20.28C154.496 20.56 154.736 20.88 154.936 21.24C155.036 21.46 155.096 21.63 155.116 21.75C155.156 21.85 155.156 21.95 155.116 22.05C155.076 22.15 154.996 22.3 154.876 22.5C154.776 22.62 154.606 22.76 154.366 22.92C154.146 23.08 153.886 23.24 153.586 23.4C153.306 23.56 153.006 23.71 152.686 23.85C152.386 23.97 152.106 24.05 151.846 24.09C151.666 24.17 151.556 24.21 151.516 24.21C151.496 24.21 151.486 24.17 151.486 24.09C151.546 23.97 151.556 23.88 151.516 23.82C151.496 23.76 151.486 23.73 151.486 23.73C151.226 23.73 151.166 23.62 151.306 23.4C151.466 23.18 151.736 22.84 152.116 22.38C152.476 21.98 152.706 21.71 152.806 21.57C152.926 21.41 152.936 21.28 152.836 21.18C152.716 21.1 152.476 21.04 152.116 21C151.756 20.96 151.366 20.95 150.946 20.97C150.546 20.97 150.186 21 149.866 21.06C148.866 21.36 147.986 21.79 147.226 22.35C146.486 22.91 146.036 23.53 145.876 24.21C145.736 24.51 145.666 24.78 145.666 25.02C145.686 25.26 145.776 25.64 145.936 26.16C145.976 26.66 146.016 27.05 146.056 27.33C146.116 27.61 146.146 27.77 146.146 27.81C146.146 27.89 146.166 28.01 146.206 28.17C146.246 28.31 146.276 28.57 146.296 28.95C146.336 29.09 146.436 29.28 146.596 29.52C146.756 29.74 147.026 29.99 147.406 30.27C147.446 30.71 147.516 31.09 147.616 31.41C147.736 31.71 147.806 32 147.826 32.28C148.226 33.08 148.526 33.88 148.726 34.68C148.946 35.48 149.076 36.14 149.116 36.66C149.156 37.18 149.106 37.44 148.966 37.44C148.946 37.44 148.936 37.47 148.936 37.53C148.936 37.59 148.946 37.62 148.966 37.62C148.966 37.74 148.896 37.89 148.756 38.07C148.616 38.25 148.446 38.45 148.246 38.67C148.046 38.87 147.846 39.05 147.646 39.21C147.466 39.39 147.316 39.53 147.196 39.63ZM154.263 40.44C154.023 40.44 153.823 40.31 153.663 40.05C153.543 39.93 153.463 39.76 153.423 39.54C153.403 39.34 153.473 38.97 153.633 38.43C153.793 37.87 154.063 37.02 154.443 35.88C154.643 35.12 154.803 34.57 154.923 34.23C155.043 33.87 155.103 33.61 155.103 33.45C155.103 33.23 155.123 33.05 155.163 32.91C155.223 32.75 155.253 32.6 155.253 32.46C155.373 32.46 155.493 32.35 155.613 32.13C155.733 31.91 155.833 31.61 155.913 31.23C155.993 30.89 156.063 30.62 156.123 30.42C156.203 30.2 156.243 30.05 156.243 29.97C156.343 29.81 156.443 29.56 156.543 29.22C156.663 28.88 156.843 28.47 157.083 27.99C157.243 27.39 157.423 26.77 157.623 26.13C157.823 25.47 158.023 24.86 158.223 24.3C158.443 23.72 158.623 23.27 158.763 22.95C158.983 22.33 159.153 21.9 159.273 21.66C159.393 21.4 159.393 21.23 159.273 21.15C159.133 21.05 159.103 20.88 159.183 20.64C159.263 20.4 159.483 20.13 159.843 19.83C160.063 19.57 160.253 19.39 160.413 19.29C160.573 19.17 160.773 19.11 161.013 19.11C161.273 19.11 161.643 19.13 162.123 19.17C162.483 19.19 162.863 19.2 163.263 19.2C163.683 19.2 163.943 19.2 164.043 19.2C164.223 19.28 164.443 19.37 164.703 19.47C164.963 19.55 165.193 19.63 165.393 19.71C165.613 19.79 165.723 19.86 165.723 19.92C165.723 20.04 165.763 20.12 165.843 20.16C165.943 20.18 166.043 20.2 166.143 20.22C166.283 20.22 166.473 20.33 166.713 20.55C166.953 20.75 167.203 21.01 167.463 21.33C167.723 21.63 167.923 21.95 168.063 22.29C168.223 22.63 168.343 22.95 168.423 23.25C168.523 23.55 168.523 23.98 168.423 24.54C168.403 24.84 168.353 25.14 168.273 25.44C168.213 25.74 168.143 25.94 168.063 26.04C167.943 26.12 167.833 26.22 167.733 26.34C167.633 26.46 167.583 26.57 167.583 26.67C167.583 26.75 167.513 26.91 167.373 27.15C167.233 27.37 167.053 27.63 166.833 27.93C166.613 28.23 166.373 28.53 166.113 28.83C165.853 29.13 165.603 29.39 165.363 29.61C165.103 29.93 164.793 30.23 164.433 30.51C164.093 30.79 163.783 31.02 163.503 31.2C162.983 31.44 162.403 31.68 161.763 31.92C161.143 32.16 160.543 32.36 159.963 32.52C159.403 32.68 158.933 32.75 158.553 32.73C157.973 32.81 157.593 32.89 157.413 32.97C157.253 33.03 157.133 33.2 157.053 33.48C156.953 33.74 156.853 34.01 156.753 34.29C156.673 34.55 156.633 34.73 156.633 34.83C156.593 34.91 156.493 35.16 156.333 35.58C156.193 35.98 156.033 36.45 155.853 36.99C155.693 37.53 155.533 38.06 155.373 38.58C155.213 39.1 155.093 39.53 155.013 39.87C154.933 40.15 154.833 40.31 154.713 40.35C154.593 40.41 154.443 40.44 154.263 40.44ZM157.983 31.14C158.063 31.22 158.373 31.23 158.913 31.17C159.453 31.11 160.033 30.96 160.653 30.72C161.053 30.58 161.453 30.41 161.853 30.21C162.273 30.01 162.673 29.79 163.053 29.55C163.253 29.41 163.553 29.16 163.953 28.8C164.353 28.44 164.753 28.01 165.153 27.51C165.213 27.41 165.313 27.22 165.453 26.94C165.613 26.64 165.753 26.36 165.873 26.1C166.053 25.82 166.233 25.41 166.413 24.87C166.593 24.31 166.633 23.85 166.533 23.49C166.433 22.97 166.173 22.49 165.753 22.05C165.333 21.59 164.833 21.28 164.253 21.12C163.813 21.04 163.443 21 163.143 21C162.863 21 162.553 21.03 162.213 21.09C161.893 21.19 161.653 21.33 161.493 21.51C161.353 21.69 161.163 22.07 160.923 22.65C160.783 22.93 160.583 23.36 160.323 23.94C160.063 24.5 159.843 25.03 159.663 25.53C159.303 26.85 158.943 27.94 158.583 28.8C158.243 29.64 158.033 30.17 157.953 30.39C157.973 30.61 157.963 30.77 157.923 30.87C157.883 30.95 157.903 31.04 157.983 31.14ZM171.299 39.42C170.939 39.36 170.559 39.22 170.159 39C169.759 38.8 169.399 38.57 169.079 38.31C168.779 38.03 168.569 37.76 168.449 37.5C168.089 36.88 167.879 36.22 167.819 35.52C167.759 34.8 167.889 34.13 168.209 33.51C168.249 33.29 168.279 33.05 168.299 32.79C168.339 32.53 168.359 32.31 168.359 32.13C168.359 32.13 168.389 32.09 168.449 32.01C168.529 31.91 168.569 31.86 168.569 31.86C168.629 31.86 168.669 31.83 168.689 31.77C168.709 31.71 168.739 31.63 168.779 31.53C168.859 31.39 168.919 31.29 168.959 31.23C169.019 31.17 169.049 31.14 169.049 31.14C169.169 31.14 169.239 31.1 169.259 31.02C169.279 30.92 169.279 30.7 169.259 30.36C169.239 30.28 169.239 30.21 169.259 30.15C169.279 30.09 169.289 30.03 169.289 29.97C169.389 29.87 169.469 29.79 169.529 29.73C169.589 29.67 169.619 29.6 169.619 29.52C169.699 29.46 169.769 29.41 169.829 29.37C169.909 29.33 169.949 29.31 169.949 29.31C170.069 29.35 170.129 29.36 170.129 29.34C170.149 29.3 170.199 29.25 170.279 29.19C170.279 29.09 170.339 28.88 170.459 28.56C170.599 28.24 170.749 27.89 170.909 27.51C171.069 27.13 171.189 26.82 171.269 26.58C172.009 25.24 172.709 24.11 173.369 23.19C174.029 22.25 174.659 21.5 175.259 20.94C175.879 20.36 176.469 19.95 177.029 19.71C177.129 19.67 177.279 19.65 177.479 19.65C177.699 19.63 177.909 19.61 178.109 19.59C178.389 19.59 178.699 19.64 179.039 19.74C179.379 19.82 179.679 19.91 179.939 20.01C180.199 20.09 180.339 20.16 180.359 20.22C180.359 20.3 180.389 20.35 180.449 20.37C180.509 20.39 180.539 20.4 180.539 20.4C180.659 20.38 180.809 20.49 180.989 20.73C181.169 20.97 181.359 21.27 181.559 21.63C181.779 21.99 181.959 22.35 182.099 22.71C182.319 23.03 182.439 23.5 182.459 24.12C182.479 24.74 182.469 25.35 182.429 25.95C182.369 26.39 182.279 26.88 182.159 27.42C182.039 27.96 181.909 28.46 181.769 28.92C181.649 29.36 181.549 29.68 181.469 29.88C181.449 29.94 181.399 30.07 181.319 30.27C181.259 30.47 181.189 30.67 181.109 30.87C181.049 31.07 180.999 31.22 180.959 31.32C180.779 31.84 180.529 32.42 180.209 33.06C179.909 33.68 179.579 34.28 179.219 34.86C178.859 35.44 178.509 35.92 178.169 36.3C177.829 36.68 177.539 36.88 177.299 36.9C177.299 36.9 177.279 36.91 177.239 36.93C177.219 36.95 177.209 37 177.209 37.08C177.209 37.12 177.049 37.28 176.729 37.56C176.429 37.84 176.089 38.13 175.709 38.43C175.349 38.71 175.079 38.92 174.899 39.06C174.479 39.2 174.039 39.31 173.579 39.39C173.139 39.49 172.719 39.54 172.319 39.54C171.919 39.54 171.579 39.5 171.299 39.42ZM171.449 37.8C172.109 37.8 172.719 37.73 173.279 37.59C173.859 37.43 174.419 37.17 174.959 36.81C175.519 36.43 176.069 35.92 176.609 35.28C176.709 35.06 176.819 34.86 176.939 34.68C177.059 34.5 177.119 34.41 177.119 34.41C177.239 34.39 177.299 34.33 177.299 34.23C177.299 34.23 177.319 34.16 177.359 34.02C177.399 33.86 177.459 33.74 177.539 33.66C177.739 33.5 177.909 33.37 178.049 33.27C178.209 33.15 178.289 33.09 178.289 33.09C178.289 33.03 178.319 32.88 178.379 32.64C178.459 32.4 178.549 32.16 178.649 31.92C178.749 31.68 178.829 31.54 178.889 31.5C178.929 31.46 179.019 31.24 179.159 30.84C179.319 30.42 179.469 29.95 179.609 29.43C179.769 28.89 179.849 28.45 179.849 28.11C179.949 28.01 180.029 27.91 180.089 27.81C180.169 27.69 180.209 27.63 180.209 27.63C180.289 27.57 180.319 27.51 180.299 27.45C180.299 27.37 180.299 27.24 180.299 27.06C180.299 26.78 180.319 26.58 180.359 26.46C180.399 26.34 180.419 26.28 180.419 26.28C180.519 26.18 180.569 26.12 180.569 26.1C180.589 26.06 180.579 26.03 180.539 26.01C180.279 25.85 180.279 25.74 180.539 25.68C180.579 25.58 180.589 25.38 180.569 25.08C180.549 24.76 180.509 24.41 180.449 24.03C180.409 23.63 180.349 23.26 180.269 22.92C180.209 22.56 180.149 22.31 180.089 22.17C179.929 21.95 179.719 21.8 179.459 21.72C179.219 21.62 178.829 21.65 178.289 21.81C177.689 21.95 177.209 22.17 176.849 22.47C176.489 22.77 176.019 23.22 175.439 23.82C175.359 24.12 175.249 24.37 175.109 24.57C174.969 24.77 174.869 24.87 174.809 24.87C174.729 24.87 174.649 24.93 174.569 25.05C174.489 25.17 174.439 25.32 174.419 25.5C174.079 25.7 173.829 25.88 173.669 26.04C173.509 26.18 173.409 26.3 173.369 26.4C173.169 26.72 172.919 27.19 172.619 27.81C172.339 28.41 172.039 29.08 171.719 29.82C171.419 30.54 171.129 31.26 170.849 31.98C170.589 32.7 170.369 33.36 170.189 33.96C170.009 34.54 169.899 34.98 169.859 35.28C169.699 35.7 169.639 36.11 169.679 36.51C169.719 36.89 169.829 37.1 170.009 37.14C170.169 37.32 170.399 37.47 170.699 37.59C170.999 37.71 171.249 37.78 171.449 37.8ZM183.572 39.69C183.572 39.83 183.532 39.85 183.452 39.75C183.372 39.65 183.222 39.51 183.002 39.33C182.822 39.15 182.712 38.97 182.672 38.79C182.632 38.61 182.622 38.33 182.642 37.95C182.742 37.49 182.922 36.82 183.182 35.94C183.442 35.04 183.752 34.1 184.112 33.12C184.152 32.74 184.222 32.39 184.322 32.07C184.422 31.75 184.472 31.59 184.472 31.59C184.472 31.55 184.522 31.5 184.622 31.44C184.722 31.38 184.802 31.28 184.862 31.14C184.942 31.1 184.972 31 184.952 30.84C184.932 30.66 184.912 30.54 184.892 30.48C184.892 30.34 184.962 30.02 185.102 29.52C185.262 29.02 185.492 28.33 185.792 27.45C186.112 26.57 186.502 25.49 186.962 24.21C187.182 23.93 187.352 23.63 187.472 23.31C187.612 22.99 187.682 22.83 187.682 22.83C187.842 22.63 187.912 22.5 187.892 22.44C187.872 22.38 187.722 22.26 187.442 22.08C187.282 21.8 187.162 21.52 187.082 21.24C187.002 20.96 187.062 20.7 187.262 20.46C187.322 20.36 187.432 20.23 187.592 20.07C187.772 19.91 187.962 19.76 188.162 19.62C188.622 19.38 188.962 19.22 189.182 19.14C189.422 19.04 189.722 19.04 190.082 19.14C190.722 19.16 191.212 19.19 191.552 19.23C191.892 19.27 192.112 19.37 192.212 19.53C192.272 19.61 192.372 19.69 192.512 19.77C192.672 19.83 192.822 19.86 192.962 19.86C193.322 19.9 193.712 20.01 194.132 20.19C194.552 20.37 194.922 20.55 195.242 20.73C195.582 20.91 195.782 21.04 195.842 21.12C196.182 21.4 196.472 21.83 196.712 22.41C196.972 22.99 197.132 23.66 197.192 24.42C197.192 24.88 197.172 25.27 197.132 25.59C197.112 25.89 197.032 26.19 196.892 26.49C196.752 26.79 196.522 27.16 196.202 27.6C195.602 28.6 194.792 29.57 193.772 30.51C192.772 31.43 191.612 32.27 190.292 33.03C190.252 33.11 190.202 33.2 190.142 33.3C190.102 33.38 190.082 33.42 190.082 33.42C190.082 33.56 190.202 33.78 190.442 34.08C190.682 34.38 190.982 34.71 191.342 35.07C191.722 35.43 192.102 35.79 192.482 36.15C192.882 36.49 193.242 36.78 193.562 37.02C193.882 37.26 194.102 37.41 194.222 37.47C194.342 37.51 194.492 37.5 194.672 37.44C194.872 37.38 195.052 37.37 195.212 37.41C195.372 37.43 195.452 37.61 195.452 37.95C195.492 38.23 195.402 38.48 195.182 38.7C194.962 38.9 194.822 39.02 194.762 39.06C194.642 39.26 194.542 39.4 194.462 39.48C194.402 39.56 194.302 39.56 194.162 39.48C194.042 39.42 193.832 39.29 193.532 39.09C192.812 38.85 192.122 38.43 191.462 37.83C190.802 37.23 190.132 36.51 189.452 35.67C189.032 35.23 188.702 34.92 188.462 34.74C188.242 34.54 188.052 34.42 187.892 34.38C187.732 34.34 187.532 34.34 187.292 34.38C187.152 34.38 186.982 34.37 186.782 34.35C186.602 34.31 186.432 34.21 186.272 34.05C186.252 33.91 186.142 33.81 185.942 33.75C185.762 33.67 185.672 33.7 185.672 33.84C185.652 33.88 185.582 34.09 185.462 34.47C185.342 34.85 185.212 35.25 185.072 35.67C184.932 36.07 184.812 36.35 184.712 36.51C184.752 36.69 184.722 36.99 184.622 37.41C184.522 37.83 184.362 38.42 184.142 39.18C184.122 39.4 184.072 39.57 183.992 39.69C183.932 39.83 183.902 39.83 183.902 39.69C183.782 39.61 183.702 39.57 183.662 39.57C183.642 39.57 183.612 39.61 183.572 39.69ZM189.212 31.8C189.852 31.42 190.492 30.97 191.132 30.45C191.772 29.93 192.352 29.41 192.872 28.89C193.392 28.37 193.782 27.91 194.042 27.51C194.202 27.39 194.352 27.19 194.492 26.91C194.652 26.63 194.782 26.46 194.882 26.4C195.042 26.18 195.152 26.02 195.212 25.92C195.292 25.8 195.282 25.65 195.182 25.47C195.182 25.31 195.192 25.15 195.212 24.99C195.232 24.83 195.292 24.68 195.392 24.54C195.592 23.94 195.602 23.52 195.422 23.28C195.262 23.04 194.932 22.81 194.432 22.59C194.332 22.49 194.152 22.39 193.892 22.29C193.652 22.19 193.392 22.1 193.112 22.02C192.832 21.92 192.612 21.84 192.452 21.78C192.112 21.72 191.772 21.67 191.432 21.63C191.092 21.57 190.832 21.55 190.652 21.57C190.432 21.63 190.282 21.71 190.202 21.81C190.122 21.89 189.952 22.19 189.692 22.71C189.652 22.97 189.572 23.23 189.452 23.49C189.332 23.75 189.232 23.9 189.152 23.94C189.132 24.02 189.032 24.31 188.852 24.81C188.672 25.31 188.452 25.91 188.192 26.61C187.952 27.31 187.702 28.01 187.442 28.71C187.202 29.39 187.002 29.97 186.842 30.45C186.682 30.93 186.602 31.21 186.602 31.29C186.602 31.33 186.702 31.43 186.902 31.59C187.102 31.73 187.222 31.73 187.262 31.59C187.262 31.59 187.342 31.62 187.502 31.68C187.662 31.74 187.782 31.79 187.862 31.83L188.312 32.1L189.212 31.8ZM201.28 39.72C201.08 39.76 200.86 39.75 200.62 39.69C200.38 39.65 200.18 39.5 200.02 39.24C199.86 38.98 199.81 38.55 199.87 37.95C199.93 37.35 200.15 36.53 200.53 35.49C200.59 35.31 200.71 34.95 200.89 34.41C201.09 33.85 201.31 33.23 201.55 32.55C201.79 31.87 202.02 31.24 202.24 30.66C202.48 30.08 202.67 29.68 202.81 29.46C202.89 29.28 202.93 29.13 202.93 29.01C202.95 28.89 202.96 28.79 202.96 28.71C202.96 28.61 203 28.48 203.08 28.32C203.18 28.14 203.27 27.96 203.35 27.78C203.45 27.58 203.53 27.4 203.59 27.24C203.67 27.06 203.71 26.91 203.71 26.79C203.71 26.79 203.76 26.62 203.86 26.28C203.96 25.92 204.09 25.51 204.25 25.05C204.41 24.59 204.59 24.21 204.79 23.91C204.97 23.45 205.14 23.05 205.3 22.71C205.46 22.37 205.54 22.14 205.54 22.02C205.54 21.98 205.32 21.96 204.88 21.96C204.44 21.96 203.91 21.98 203.29 22.02C202.67 22.04 202.09 22.07 201.55 22.11C201.01 22.15 200.63 22.2 200.41 22.26C200.23 22.3 200.07 22.34 199.93 22.38C199.79 22.4 199.7 22.4 199.66 22.38C199.58 22.34 199.48 22.23 199.36 22.05C199.26 21.87 199.2 21.67 199.18 21.45C199.18 21.21 199.29 21.03 199.51 20.91C199.87 20.69 200.19 20.56 200.47 20.52C200.77 20.48 201.09 20.46 201.43 20.46C201.79 20.44 202.22 20.4 202.72 20.34C203.18 20.34 203.58 20.32 203.92 20.28C204.26 20.22 204.47 20.19 204.55 20.19C204.75 20.19 204.99 20.15 205.27 20.07C205.57 19.99 205.91 19.95 206.29 19.95C206.55 19.95 206.81 19.93 207.07 19.89C207.33 19.83 207.56 19.8 207.76 19.8C207.86 19.8 208.1 19.8 208.48 19.8C208.86 19.8 209.24 19.8 209.62 19.8C209.9 19.8 210.28 19.76 210.76 19.68C211.24 19.6 211.63 19.52 211.93 19.44C212.85 19.24 213.56 19.19 214.06 19.29C214.58 19.39 214.93 19.69 215.11 20.19C215.19 20.63 214.87 20.94 214.15 21.12C213.45 21.28 212.21 21.41 210.43 21.51C209.57 21.59 208.98 21.65 208.66 21.69C208.34 21.73 208.18 21.84 208.18 22.02C208.18 22.14 208.13 22.25 208.03 22.35C207.95 22.43 207.87 22.52 207.79 22.62C207.71 22.66 207.58 22.85 207.4 23.19C207.24 23.53 207.08 23.92 206.92 24.36C206.76 24.8 206.62 25.21 206.5 25.59C206.38 25.95 206.32 26.18 206.32 26.28C206.32 26.28 206.28 26.35 206.2 26.49C206.14 26.61 206.11 26.71 206.11 26.79C206.03 26.99 205.92 27.22 205.78 27.48C205.66 27.74 205.55 27.97 205.45 28.17C205.15 28.97 204.9 29.61 204.7 30.09C204.52 30.57 204.37 30.95 204.25 31.23C204.15 31.49 204.06 31.72 203.98 31.92C203.9 32.18 203.77 32.62 203.59 33.24C203.41 33.86 203.22 34.41 203.02 34.89C202.92 35.03 202.83 35.13 202.75 35.19C202.69 35.23 202.66 35.33 202.66 35.49C202.66 35.51 202.62 35.67 202.54 35.97C202.46 36.27 202.35 36.63 202.21 37.05C202.09 37.45 201.96 37.86 201.82 38.28C201.7 38.68 201.59 39.02 201.49 39.3C201.39 39.58 201.32 39.72 201.28 39.72ZM215.77 40.5C215.41 40.4 215.12 40.31 214.9 40.23C214.68 40.17 214.57 40.14 214.57 40.14C214.61 40.04 214.59 39.95 214.51 39.87C214.45 39.79 214.31 39.74 214.09 39.72C213.79 39.54 213.51 39.31 213.25 39.03C213.01 38.77 212.81 38.51 212.65 38.25C212.49 37.99 212.37 37.77 212.29 37.59C212.15 37.29 212.08 37.11 212.08 37.05C212.1 36.97 212.22 36.88 212.44 36.78C212.66 36.62 212.82 36.57 212.92 36.63C213.04 36.69 213.18 36.89 213.34 37.23C213.6 37.69 214.04 38.04 214.66 38.28C215.3 38.52 216.01 38.63 216.79 38.61C217.59 38.57 218.35 38.39 219.07 38.07C219.81 37.77 220.27 37.46 220.45 37.14C220.65 36.8 220.58 36.37 220.24 35.85C220.18 35.69 220.11 35.56 220.03 35.46C219.95 35.36 219.82 35.23 219.64 35.07C219.48 34.91 219.21 34.65 218.83 34.29C218.53 34.15 218.25 34.02 217.99 33.9C217.75 33.78 217.49 33.65 217.21 33.51C216.89 33.35 216.5 33.12 216.04 32.82C215.6 32.5 215.18 32.15 214.78 31.77C214.38 31.39 214.09 31.04 213.91 30.72C213.59 30.42 213.35 30.01 213.19 29.49C213.03 28.95 212.97 28.38 213.01 27.78C213.05 27.18 213.2 26.64 213.46 26.16C213.58 25.88 213.78 25.54 214.06 25.14C214.36 24.72 214.69 24.3 215.05 23.88C215.41 23.46 215.76 23.08 216.1 22.74C216.44 22.4 216.72 22.16 216.94 22.02C217.1 21.86 217.27 21.7 217.45 21.54C217.63 21.36 217.72 21.27 217.72 21.27C217.74 21.17 217.77 21.12 217.81 21.12C217.87 21.12 217.9 21.12 217.9 21.12C218 21.06 218.22 20.96 218.56 20.82C218.9 20.68 219.27 20.42 219.67 20.04C221.01 19.4 222.1 18.93 222.94 18.63C223.78 18.33 224.47 18.18 225.01 18.18C225.51 18.2 225.96 18.32 226.36 18.54C226.78 18.74 227.12 19.01 227.38 19.35C227.66 19.69 227.83 20.1 227.89 20.58C228.03 21.06 227.99 21.62 227.77 22.26C227.55 22.88 227.22 23.47 226.78 24.03C226.36 24.57 225.9 24.98 225.4 25.26C224.84 25.5 224.46 25.61 224.26 25.59C224.08 25.55 224 25.34 224.02 24.96C224.02 24.8 224.07 24.61 224.17 24.39C224.29 24.17 224.6 23.78 225.1 23.22C225.74 22.28 226.13 21.53 226.27 20.97C226.41 20.41 226.28 20.1 225.88 20.04C225.76 20 225.54 20 225.22 20.04C224.92 20.08 224.58 20.14 224.2 20.22C223.84 20.28 223.53 20.35 223.27 20.43C223.01 20.49 222.88 20.54 222.88 20.58C222.88 20.58 222.88 20.61 222.88 20.67C222.88 20.73 222.84 20.75 222.76 20.73C222.72 20.73 222.55 20.81 222.25 20.97C221.95 21.13 221.59 21.34 221.17 21.6C220.75 21.86 220.33 22.12 219.91 22.38C219.49 22.64 219.13 22.87 218.83 23.07C218.55 23.25 218.4 23.36 218.38 23.4C218.34 23.62 218.11 23.82 217.69 24C217.29 24.24 216.92 24.59 216.58 25.05C216.26 25.51 215.9 26.08 215.5 26.76C215.16 27.22 214.92 27.72 214.78 28.26C214.64 28.78 214.64 29.2 214.78 29.52C214.88 29.84 215.19 30.25 215.71 30.75C216.23 31.25 216.88 31.73 217.66 32.19C218.34 32.57 218.95 32.95 219.49 33.33C220.03 33.69 220.47 34.04 220.81 34.38C221.17 34.72 221.41 35.02 221.53 35.28C221.77 35.62 221.94 35.97 222.04 36.33C222.16 36.67 222.22 37 222.22 37.32C222.24 37.64 222.21 37.93 222.13 38.19C221.99 38.51 221.74 38.84 221.38 39.18C221.04 39.52 220.75 39.68 220.51 39.66C220.29 39.72 220.12 39.79 220 39.87C219.9 39.95 219.78 40.02 219.64 40.08C219.5 40.16 219.2 40.24 218.74 40.32C218.3 40.4 217.81 40.45 217.27 40.47C216.73 40.51 216.23 40.52 215.77 40.5Z" fill="black"/>
<path d="M91.4804 58.985C91.2404 59.055 90.9754 59.065 90.6854 59.015C90.4054 58.975 90.1604 58.89 89.9504 58.76C89.7304 58.63 89.6054 58.485 89.5754 58.325C89.5654 58.265 89.5854 58.2 89.6354 58.13C89.6754 58.06 89.7304 58.01 89.8004 57.98C89.8604 57.96 89.9154 57.98 89.9654 58.04C90.0454 58.09 90.1904 58.15 90.4004 58.22C90.6104 58.3 90.8454 58.315 91.1054 58.265C91.3354 58.215 91.5604 58.08 91.7804 57.86C92.0104 57.64 92.1954 57.435 92.3354 57.245C92.4154 57.125 92.5504 56.91 92.7404 56.6C92.9304 56.29 93.1254 55.95 93.3254 55.58C93.5354 55.2 93.7104 54.85 93.8504 54.53C93.8804 54.45 93.9154 54.355 93.9554 54.245C93.9954 54.135 94.0454 54.045 94.1054 53.975C94.1654 53.855 94.2154 53.745 94.2554 53.645C94.3054 53.535 94.3354 53.46 94.3454 53.42C94.3554 53.37 94.4004 53.27 94.4804 53.12C94.5604 52.97 94.6354 52.82 94.7054 52.67C94.7554 52.52 94.8304 52.3 94.9304 52.01C95.0304 51.72 95.1304 51.485 95.2304 51.305C95.3504 51.075 95.4454 50.89 95.5154 50.75C95.5954 50.6 95.6804 50.51 95.7704 50.48C95.8604 50.41 95.9204 50.375 95.9504 50.375C95.9904 50.375 96.0654 50.405 96.1754 50.465C96.2954 50.585 96.3704 50.705 96.4004 50.825C96.4304 50.935 96.4154 51.075 96.3554 51.245C96.3054 51.405 96.2054 51.625 96.0554 51.905C95.9754 52.145 95.8854 52.365 95.7854 52.565C95.6954 52.755 95.6254 52.88 95.5754 52.94C95.5254 53.06 95.4654 53.195 95.3954 53.345C95.3354 53.485 95.2804 53.615 95.2304 53.735C95.0504 54.135 94.8954 54.46 94.7654 54.71C94.6354 54.96 94.5204 55.19 94.4204 55.4C94.3204 55.61 94.2154 55.855 94.1054 56.135C93.8754 56.505 93.6504 56.855 93.4304 57.185C93.2204 57.525 92.9954 57.84 92.7554 58.13C92.6554 58.22 92.5304 58.325 92.3804 58.445C92.2304 58.565 92.0754 58.675 91.9154 58.775C91.7654 58.875 91.6204 58.945 91.4804 58.985ZM93.5054 55.385C93.3554 55.365 93.2054 55.275 93.0554 55.115C92.9154 54.955 92.8054 54.785 92.7254 54.605C92.6454 54.425 92.6154 54.295 92.6354 54.215C92.6354 54.165 92.6354 54.125 92.6354 54.095C92.6354 54.065 92.6354 54.05 92.6354 54.05C92.5754 54.05 92.5204 53.975 92.4704 53.825C92.4304 53.675 92.4004 53.48 92.3804 53.24C92.3604 53 92.3454 52.745 92.3354 52.475C92.3354 52.205 92.3454 51.95 92.3654 51.71C92.4054 51.54 92.4254 51.355 92.4254 51.155C92.4254 50.945 92.4304 50.78 92.4404 50.66C92.4304 50.5 92.4454 50.395 92.4854 50.345C92.5254 50.285 92.5654 50.24 92.6054 50.21C92.8854 50.09 93.0704 50.165 93.1604 50.435C93.2604 50.695 93.2854 51.185 93.2354 51.905C93.2154 52.305 93.2154 52.705 93.2354 53.105C93.2554 53.505 93.3104 53.855 93.4004 54.155C93.5004 54.455 93.6354 54.66 93.8054 54.77C93.8754 54.81 93.9104 54.865 93.9104 54.935C93.9104 55.005 93.8904 55.08 93.8504 55.16C93.8104 55.23 93.7554 55.29 93.6854 55.34C93.6254 55.38 93.5654 55.395 93.5054 55.385ZM97.9427 55.775C97.8127 55.775 97.7077 55.75 97.6277 55.7C97.5577 55.65 97.4677 55.58 97.3577 55.49C97.1677 55.29 97.0327 55.1 96.9527 54.92C96.8727 54.73 96.8477 54.55 96.8777 54.38C96.9077 54.3 96.9177 54.225 96.9077 54.155C96.9077 54.075 96.9077 54.035 96.9077 54.035C96.8577 53.985 96.8427 53.955 96.8627 53.945C96.8827 53.925 96.9027 53.895 96.9227 53.855C96.9827 53.855 97.0027 53.8 96.9827 53.69C96.9627 53.61 97.0027 53.435 97.1027 53.165C97.2027 52.895 97.3277 52.64 97.4777 52.4C97.5377 52.3 97.6277 52.17 97.7477 52.01C97.8677 51.84 97.9977 51.675 98.1377 51.515C98.2877 51.345 98.4227 51.21 98.5427 51.11C98.7927 50.9 99.0127 50.745 99.2027 50.645C99.3927 50.545 99.5977 50.47 99.8177 50.42C100.038 50.37 100.188 50.345 100.268 50.345C100.358 50.345 100.478 50.425 100.628 50.585C100.858 50.685 101.023 50.805 101.123 50.945C101.233 51.085 101.303 51.29 101.333 51.56C101.363 51.86 101.338 52.205 101.258 52.595C101.188 52.975 100.953 53.45 100.553 54.02C100.303 54.38 100.073 54.65 99.8627 54.83C99.6527 55 99.4027 55.17 99.1127 55.34C98.9027 55.48 98.7127 55.585 98.5427 55.655C98.3727 55.715 98.1727 55.755 97.9427 55.775ZM99.3827 54.185C99.6227 53.915 99.8127 53.66 99.9527 53.42C100.103 53.18 100.243 52.875 100.373 52.505C100.413 52.395 100.438 52.26 100.448 52.1C100.458 51.93 100.453 51.775 100.433 51.635C100.423 51.485 100.388 51.4 100.328 51.38C100.208 51.31 100.063 51.29 99.8927 51.32C99.7227 51.34 99.5377 51.435 99.3377 51.605C99.0277 51.865 98.7577 52.19 98.5277 52.58C98.2977 52.96 98.0727 53.395 97.8527 53.885C97.7027 54.245 97.6677 54.535 97.7477 54.755C97.8377 54.965 98.0227 55.04 98.3027 54.98C98.5927 54.91 98.9527 54.645 99.3827 54.185ZM105.721 55.97C105.651 56.01 105.556 55.995 105.436 55.925C105.326 55.855 105.216 55.75 105.106 55.61C105.036 55.49 104.986 55.36 104.956 55.22C104.936 55.08 104.926 54.885 104.926 54.635C104.936 54.435 104.926 54.305 104.896 54.245C104.876 54.185 104.821 54.195 104.731 54.275C104.641 54.345 104.486 54.49 104.266 54.71C104.016 54.96 103.776 55.155 103.546 55.295C103.326 55.435 103.146 55.5 103.006 55.49C102.936 55.49 102.856 55.455 102.766 55.385C102.686 55.305 102.611 55.21 102.541 55.1C102.471 54.98 102.411 54.86 102.361 54.74C102.301 54.52 102.291 54.24 102.331 53.9C102.381 53.55 102.461 53.185 102.571 52.805C102.681 52.425 102.806 52.065 102.946 51.725C103.096 51.385 103.246 51.11 103.396 50.9C103.556 50.69 103.696 50.585 103.816 50.585C103.896 50.585 103.966 50.625 104.026 50.705C104.096 50.785 104.166 50.91 104.236 51.08C104.276 51.15 104.291 51.21 104.281 51.26C104.281 51.31 104.241 51.37 104.161 51.44C104.071 51.56 103.966 51.74 103.846 51.98C103.736 52.22 103.626 52.48 103.516 52.76C103.416 53.04 103.326 53.31 103.246 53.57C103.166 53.83 103.111 54.045 103.081 54.215C103.051 54.375 103.056 54.455 103.096 54.455C103.236 54.455 103.401 54.4 103.591 54.29C103.791 54.17 103.981 54.025 104.161 53.855C104.371 53.645 104.556 53.415 104.716 53.165C104.886 52.915 105.056 52.65 105.226 52.37C105.356 52.17 105.491 51.95 105.631 51.71C105.781 51.47 105.876 51.3 105.916 51.2C106.056 50.94 106.161 50.765 106.231 50.675C106.301 50.575 106.386 50.51 106.486 50.48C106.536 50.48 106.581 50.48 106.621 50.48C106.671 50.48 106.696 50.48 106.696 50.48C106.756 50.49 106.826 50.535 106.906 50.615C106.986 50.655 107.031 50.695 107.041 50.735C107.051 50.765 107.056 50.805 107.056 50.855C107.016 50.955 106.951 51.105 106.861 51.305C106.781 51.495 106.721 51.635 106.681 51.725C106.491 52.155 106.301 52.58 106.111 53C105.931 53.41 105.801 53.83 105.721 54.26C105.701 54.4 105.696 54.565 105.706 54.755C105.726 54.935 105.756 55.065 105.796 55.145C105.826 55.205 105.861 55.275 105.901 55.355C105.951 55.425 106.006 55.485 106.066 55.535C106.156 55.595 106.171 55.66 106.111 55.73C106.061 55.8 105.991 55.86 105.901 55.91C105.811 55.95 105.751 55.97 105.721 55.97ZM108.663 55.535C108.633 55.545 108.583 55.54 108.513 55.52C108.443 55.5 108.373 55.475 108.303 55.445C108.233 55.415 108.188 55.39 108.168 55.37C108.128 55.33 108.088 55.27 108.048 55.19C108.018 55.11 108.018 54.995 108.048 54.845C108.078 54.685 108.178 54.48 108.348 54.23C108.398 54.13 108.458 53.98 108.528 53.78C108.598 53.58 108.668 53.37 108.738 53.15C108.818 52.92 108.888 52.715 108.948 52.535C109.018 52.355 109.068 52.23 109.098 52.16C109.118 51.99 109.108 51.87 109.068 51.8C109.038 51.72 108.953 51.675 108.813 51.665C108.713 51.665 108.633 51.655 108.573 51.635C108.523 51.615 108.498 51.515 108.498 51.335C108.518 51.195 108.553 51.1 108.603 51.05C108.663 50.99 108.743 50.925 108.843 50.855C108.943 50.805 109.043 50.77 109.143 50.75C109.253 50.73 109.358 50.725 109.458 50.735C109.558 50.745 109.638 50.78 109.698 50.84C109.768 50.88 109.813 50.97 109.833 51.11C109.853 51.24 109.863 51.375 109.863 51.515C109.873 51.655 109.883 51.76 109.893 51.83C109.993 51.75 110.128 51.64 110.298 51.5C110.478 51.35 110.633 51.21 110.763 51.08C110.923 50.97 111.113 50.86 111.333 50.75C111.553 50.63 111.713 50.57 111.813 50.57C111.923 50.57 112.033 50.6 112.143 50.66C112.253 50.71 112.328 50.775 112.368 50.855C112.468 51.025 112.513 51.175 112.503 51.305C112.503 51.435 112.448 51.57 112.338 51.71C112.238 51.84 112.113 51.93 111.963 51.98C111.823 52.03 111.733 52.055 111.693 52.055C111.633 52.055 111.558 52.01 111.468 51.92C111.378 51.83 111.328 51.755 111.318 51.695C111.318 51.665 111.253 51.695 111.123 51.785C111.003 51.865 110.868 51.97 110.718 52.1C110.568 52.22 110.443 52.33 110.343 52.43C110.173 52.64 109.993 52.925 109.803 53.285C109.613 53.645 109.388 54.08 109.128 54.59C109.008 54.84 108.923 55.055 108.873 55.235C108.823 55.405 108.753 55.505 108.663 55.535ZM115.781 58.79C115.631 58.92 115.451 59 115.241 59.03C115.021 59.07 114.811 59.055 114.611 58.985C114.401 58.915 114.221 58.79 114.071 58.61C114.011 58.47 114.001 58.355 114.041 58.265C114.081 58.185 114.151 58.13 114.251 58.1C114.351 58.08 114.461 58.1 114.581 58.16C114.681 58.2 114.846 58.205 115.076 58.175C115.296 58.155 115.471 58.06 115.601 57.89C115.681 57.8 115.776 57.645 115.886 57.425C116.006 57.205 116.126 56.96 116.246 56.69C116.366 56.43 116.481 56.18 116.591 55.94C116.701 55.7 116.786 55.51 116.846 55.37C116.896 55.24 116.941 55.115 116.981 54.995C117.021 54.875 117.041 54.795 117.041 54.755C117.081 54.705 117.121 54.62 117.161 54.5C117.201 54.38 117.241 54.24 117.281 54.08C117.311 54.06 117.336 54.04 117.356 54.02C117.376 53.99 117.366 53.955 117.326 53.915L117.641 52.775C117.701 52.505 117.766 52.275 117.836 52.085C117.906 51.895 117.941 51.78 117.941 51.74C117.951 51.7 117.961 51.62 117.971 51.5C117.991 51.38 118.031 51.27 118.091 51.17C118.101 51.02 118.121 50.89 118.151 50.78C118.191 50.66 118.211 50.58 118.211 50.54C118.251 50.51 118.321 50.515 118.421 50.555C118.521 50.585 118.606 50.64 118.676 50.72C118.746 50.81 118.791 50.885 118.811 50.945C118.841 51.005 118.841 51.12 118.811 51.29C118.791 51.45 118.741 51.74 118.661 52.16C118.651 52.22 118.621 52.34 118.571 52.52C118.531 52.7 118.476 52.905 118.406 53.135C118.346 53.355 118.286 53.575 118.226 53.795C118.166 54.005 118.111 54.175 118.061 54.305C118.021 54.455 117.981 54.595 117.941 54.725C117.901 54.855 117.876 54.955 117.866 55.025C117.826 55.095 117.771 55.215 117.701 55.385C117.641 55.545 117.581 55.7 117.521 55.85C117.461 55.99 117.416 56.085 117.386 56.135C117.376 56.175 117.356 56.21 117.326 56.24C117.306 56.28 117.296 56.32 117.296 56.36C117.286 56.39 117.241 56.51 117.161 56.72C117.081 56.94 116.956 57.2 116.786 57.5C116.736 57.62 116.646 57.77 116.516 57.95C116.386 58.13 116.251 58.295 116.111 58.445C115.981 58.605 115.871 58.72 115.781 58.79ZM119.216 48.92C119.106 48.93 118.991 48.92 118.871 48.89C118.751 48.86 118.656 48.82 118.586 48.77C118.416 48.63 118.346 48.475 118.376 48.305C118.406 48.135 118.496 47.98 118.646 47.84C118.806 47.7 118.981 47.615 119.171 47.585C119.251 47.575 119.331 47.59 119.411 47.63C119.491 47.67 119.561 47.73 119.621 47.81C119.691 47.88 119.731 47.98 119.741 48.11C119.761 48.3 119.726 48.455 119.636 48.575C119.556 48.695 119.416 48.81 119.216 48.92ZM121.362 55.91C121.232 55.92 121.127 55.91 121.047 55.88C120.967 55.84 120.867 55.785 120.747 55.715C120.527 55.545 120.362 55.375 120.252 55.205C120.152 55.025 120.107 54.85 120.117 54.68C120.137 54.59 120.137 54.51 120.117 54.44C120.107 54.37 120.102 54.335 120.102 54.335C120.042 54.285 120.022 54.255 120.042 54.245C120.062 54.225 120.077 54.195 120.087 54.155C120.167 54.135 120.177 54.08 120.117 53.99C120.087 53.91 120.102 53.73 120.162 53.45C120.232 53.16 120.322 52.89 120.432 52.64C120.482 52.53 120.552 52.385 120.642 52.205C120.742 52.025 120.852 51.845 120.972 51.665C121.092 51.475 121.202 51.325 121.302 51.215C121.522 50.965 121.717 50.78 121.887 50.66C122.067 50.53 122.267 50.425 122.487 50.345C122.687 50.265 122.832 50.22 122.922 50.21C123.012 50.2 123.137 50.26 123.297 50.39C123.537 50.46 123.717 50.56 123.837 50.69C123.967 50.81 124.067 51 124.137 51.26C124.217 51.55 124.242 51.895 124.212 52.295C124.192 52.685 124.022 53.19 123.702 53.81C123.512 54.2 123.322 54.495 123.132 54.695C122.952 54.895 122.732 55.105 122.472 55.325C122.282 55.485 122.107 55.61 121.947 55.7C121.787 55.79 121.592 55.86 121.362 55.91ZM122.562 54.125C122.762 53.825 122.917 53.55 123.027 53.3C123.147 53.04 123.242 52.715 123.312 52.325C123.332 52.215 123.337 52.08 123.327 51.92C123.317 51.75 123.292 51.595 123.252 51.455C123.222 51.315 123.177 51.24 123.117 51.23C122.987 51.18 122.842 51.18 122.682 51.23C122.522 51.27 122.347 51.39 122.157 51.59C121.987 51.79 121.832 52.015 121.692 52.265C121.562 52.515 121.442 52.79 121.332 53.09C121.222 53.39 121.117 53.71 121.017 54.05C120.917 54.43 120.922 54.72 121.032 54.92C121.152 55.12 121.347 55.17 121.617 55.07C121.887 54.96 122.202 54.645 122.562 54.125ZM128.72 55.97C128.62 55.87 128.52 55.735 128.42 55.565C128.32 55.385 128.24 55.18 128.18 54.95C128.16 54.87 128.15 54.76 128.15 54.62C128.16 54.48 128.16 54.38 128.15 54.32C128.12 54.39 128.07 54.465 128 54.545C127.94 54.615 127.88 54.675 127.82 54.725C127.78 54.765 127.69 54.845 127.55 54.965C127.41 55.075 127.27 55.165 127.13 55.235C126.8 55.445 126.525 55.56 126.305 55.58C126.095 55.6 125.895 55.49 125.705 55.25C125.545 55.12 125.43 54.975 125.36 54.815C125.3 54.655 125.3 54.435 125.36 54.155C125.38 53.805 125.43 53.465 125.51 53.135C125.59 52.795 125.755 52.345 126.005 51.785C126.215 51.375 126.375 51.075 126.485 50.885C126.595 50.685 126.665 50.565 126.695 50.525C126.845 50.475 126.97 50.48 127.07 50.54C127.17 50.59 127.23 50.685 127.25 50.825C127.31 50.925 127.3 51.095 127.22 51.335C127.15 51.575 127.025 51.87 126.845 52.22C126.705 52.56 126.575 52.9 126.455 53.24C126.345 53.58 126.28 53.87 126.26 54.11C126.24 54.35 126.3 54.495 126.44 54.545C126.53 54.595 126.685 54.58 126.905 54.5C127.135 54.42 127.39 54.22 127.67 53.9C127.96 53.58 128.24 53.095 128.51 52.445C128.59 52.245 128.65 52.07 128.69 51.92C128.73 51.76 128.755 51.585 128.765 51.395C128.745 51.275 128.75 51.17 128.78 51.08C128.82 50.98 128.9 50.895 129.02 50.825C129.06 50.775 129.115 50.73 129.185 50.69C129.255 50.64 129.3 50.64 129.32 50.69L129.56 50.675C129.6 50.665 129.625 50.69 129.635 50.75C129.655 50.8 129.69 50.845 129.74 50.885C129.85 50.975 129.88 51.17 129.83 51.47C129.78 51.77 129.64 52.19 129.41 52.73C129.22 53.14 129.09 53.45 129.02 53.66C128.96 53.87 128.925 54.075 128.915 54.275C128.915 54.455 128.95 54.625 129.02 54.785C129.09 54.945 129.2 55.09 129.35 55.22C129.46 55.29 129.52 55.37 129.53 55.46C129.55 55.55 129.555 55.655 129.545 55.775C129.525 55.865 129.465 55.94 129.365 56C129.275 56.05 129.17 56.075 129.05 56.075C128.93 56.075 128.82 56.04 128.72 55.97ZM130.972 55.475C130.882 55.405 130.817 55.335 130.777 55.265C130.747 55.195 130.747 55.06 130.777 54.86C130.807 54.58 130.847 54.335 130.897 54.125C130.947 53.905 131.007 53.655 131.077 53.375C131.097 53.255 131.152 53.05 131.242 52.76C131.342 52.47 131.462 52.155 131.602 51.815C131.742 51.475 131.882 51.155 132.022 50.855C132.162 50.545 132.282 50.315 132.382 50.165C132.462 50.105 132.557 50.08 132.667 50.09C132.787 50.1 132.887 50.145 132.967 50.225C133.077 50.315 133.092 50.475 133.012 50.705C132.942 50.925 132.792 51.275 132.562 51.755C132.442 52.025 132.352 52.23 132.292 52.37C132.232 52.5 132.207 52.58 132.217 52.61C132.227 52.63 132.272 52.615 132.352 52.565C132.412 52.455 132.522 52.33 132.682 52.19C132.842 52.04 133.012 51.895 133.192 51.755C133.372 51.615 133.542 51.49 133.702 51.38C133.862 51.27 133.972 51.2 134.032 51.17C134.112 51.12 134.202 51.08 134.302 51.05C134.412 51.01 134.487 50.98 134.527 50.96C134.757 50.85 134.992 50.81 135.232 50.84C135.472 50.87 135.622 50.96 135.682 51.11C135.692 51.19 135.722 51.25 135.772 51.29C135.832 51.33 135.862 51.35 135.862 51.35C135.902 51.35 135.922 51.365 135.922 51.395C135.932 51.425 135.937 51.44 135.937 51.44C135.937 51.51 135.882 51.555 135.772 51.575C135.672 51.585 135.542 51.595 135.382 51.605C135.252 51.615 135.137 51.64 135.037 51.68C134.937 51.72 134.817 51.77 134.677 51.83C134.297 52.05 133.932 52.265 133.582 52.475C133.242 52.685 132.912 52.965 132.592 53.315C132.522 53.395 132.452 53.49 132.382 53.6C132.312 53.71 132.237 53.83 132.157 53.96C132.107 54.01 132.057 54.12 132.007 54.29C131.957 54.46 131.912 54.625 131.872 54.785C131.842 54.935 131.827 55.025 131.827 55.055C131.827 55.055 131.812 55.105 131.782 55.205C131.752 55.295 131.702 55.385 131.632 55.475C131.512 55.635 131.412 55.715 131.332 55.715C131.252 55.715 131.132 55.635 130.972 55.475ZM140.742 55.82C140.642 55.82 140.537 55.765 140.427 55.655C140.327 55.545 140.237 55.41 140.157 55.25C140.087 55.08 140.052 54.92 140.052 54.77C140.052 54.62 140.087 54.34 140.157 53.93C140.237 53.52 140.332 53.105 140.442 52.685C140.522 52.425 140.547 52.275 140.517 52.235C140.487 52.195 140.352 52.25 140.112 52.4C139.972 52.47 139.847 52.545 139.737 52.625C139.627 52.695 139.532 52.775 139.452 52.865C139.402 52.905 139.327 52.97 139.227 53.06C139.127 53.15 139.022 53.235 138.912 53.315C138.782 53.415 138.617 53.555 138.417 53.735C138.217 53.915 138.017 54.095 137.817 54.275C137.627 54.455 137.482 54.595 137.382 54.695C137.362 54.735 137.332 54.77 137.292 54.8C137.252 54.83 137.207 54.85 137.157 54.86C137.107 54.86 137.052 54.85 136.992 54.83C136.882 54.8 136.777 54.735 136.677 54.635C136.587 54.535 136.542 54.42 136.542 54.29C136.542 54.19 136.582 54.02 136.662 53.78C136.742 53.53 136.847 53.23 136.977 52.88C137.117 52.53 137.277 52.16 137.457 51.77C137.487 51.72 137.512 51.66 137.532 51.59C137.552 51.51 137.567 51.425 137.577 51.335C137.597 51.245 137.607 51.16 137.607 51.08C137.607 51.03 137.612 50.98 137.622 50.93C137.642 50.87 137.662 50.815 137.682 50.765C137.712 50.705 137.737 50.665 137.757 50.645C137.797 50.565 137.867 50.545 137.967 50.585C138.067 50.615 138.152 50.685 138.222 50.795C138.372 50.935 138.447 51.11 138.447 51.32C138.457 51.53 138.407 51.79 138.297 52.1C138.257 52.17 138.222 52.24 138.192 52.31C138.172 52.37 138.152 52.425 138.132 52.475C138.112 52.515 138.097 52.55 138.087 52.58C138.077 52.6 138.072 52.61 138.072 52.61C138.112 52.61 138.202 52.565 138.342 52.475C138.482 52.385 138.647 52.285 138.837 52.175C138.987 52.065 139.117 51.965 139.227 51.875C139.347 51.775 139.447 51.7 139.527 51.65C139.607 51.59 139.657 51.56 139.677 51.56C139.717 51.56 139.767 51.545 139.827 51.515C139.887 51.485 139.937 51.45 139.977 51.41C140.017 51.37 140.047 51.35 140.067 51.35C140.097 51.34 140.112 51.335 140.112 51.335C140.112 51.335 140.132 51.335 140.172 51.335C140.212 51.325 140.252 51.3 140.292 51.26C140.372 51.2 140.477 51.185 140.607 51.215C140.737 51.235 140.857 51.285 140.967 51.365C141.077 51.445 141.132 51.535 141.132 51.635C141.132 51.675 141.142 51.71 141.162 51.74C141.192 51.76 141.207 51.77 141.207 51.77C141.287 51.77 141.337 51.895 141.357 52.145C141.387 52.395 141.362 52.635 141.282 52.865C141.282 53.015 141.252 53.195 141.192 53.405C141.142 53.615 141.097 53.815 141.057 54.005C140.977 54.255 140.922 54.475 140.892 54.665C140.862 54.855 140.857 55.015 140.877 55.145C140.897 55.275 140.932 55.38 140.982 55.46C141.022 55.53 141.022 55.61 140.982 55.7C140.942 55.78 140.862 55.82 140.742 55.82ZM144.285 56.045C143.845 56.045 143.485 55.88 143.205 55.55C142.925 55.21 142.79 54.79 142.8 54.29C142.82 53.93 142.89 53.545 143.01 53.135C143.14 52.715 143.31 52.315 143.52 51.935C143.73 51.545 143.96 51.205 144.21 50.915C144.46 50.625 144.72 50.42 144.99 50.3C145.09 50.25 145.195 50.21 145.305 50.18C145.425 50.15 145.545 50.135 145.665 50.135C145.775 50.135 145.89 50.155 146.01 50.195C146.13 50.225 146.23 50.26 146.31 50.3C146.48 50.37 146.61 50.455 146.7 50.555C146.79 50.655 146.87 50.81 146.94 51.02C146.97 51.21 146.985 51.345 146.985 51.425C146.985 51.505 146.96 51.625 146.91 51.785C146.79 52.145 146.635 52.455 146.445 52.715C146.255 52.975 146 53.195 145.68 53.375C145.6 53.425 145.505 53.465 145.395 53.495C145.295 53.515 145.19 53.525 145.08 53.525C144.88 53.525 144.685 53.49 144.495 53.42C144.315 53.34 144.17 53.225 144.06 53.075L143.955 52.955L143.91 53.075C143.81 53.345 143.73 53.595 143.67 53.825C143.62 54.055 143.595 54.265 143.595 54.455C143.595 54.575 143.605 54.69 143.625 54.8C143.655 54.91 143.695 55.005 143.745 55.085C143.785 55.145 143.85 55.19 143.94 55.22C144.04 55.24 144.145 55.25 144.255 55.25C144.325 55.25 144.395 55.25 144.465 55.25C144.545 55.24 144.62 55.22 144.69 55.19C144.86 55.13 144.995 55.065 145.095 54.995C145.205 54.925 145.315 54.85 145.425 54.77L145.485 54.74H145.47C145.59 54.68 145.695 54.62 145.785 54.56C145.885 54.5 145.935 54.47 145.935 54.47C145.975 54.47 146.015 54.445 146.055 54.395C146.135 54.355 146.235 54.37 146.355 54.44C146.485 54.51 146.55 54.6 146.55 54.71C146.54 54.76 146.495 54.84 146.415 54.95C146.335 55.05 146.245 55.145 146.145 55.235C146.055 55.325 145.98 55.375 145.92 55.385C145.91 55.395 145.875 55.415 145.815 55.445C145.755 55.465 145.715 55.485 145.695 55.505H145.71C145.62 55.625 145.53 55.685 145.44 55.685H145.32C145.28 55.755 145.15 55.835 144.93 55.925C144.71 56.005 144.495 56.045 144.285 56.045ZM144.96 52.745C145.14 52.745 145.295 52.695 145.425 52.595C145.565 52.485 145.685 52.365 145.785 52.235C145.985 51.965 146.1 51.705 146.13 51.455C146.17 51.195 146.14 51.015 146.04 50.915C145.98 50.885 145.925 50.87 145.875 50.87C145.835 50.86 145.75 50.875 145.62 50.915C145.53 50.935 145.405 51.01 145.245 51.14C145.085 51.27 144.925 51.415 144.765 51.575C144.615 51.735 144.5 51.87 144.42 51.98L144.225 52.295C144.305 52.265 144.38 52.25 144.45 52.25C144.53 52.24 144.575 52.245 144.585 52.265C144.585 52.355 144.6 52.44 144.63 52.52C144.67 52.59 144.715 52.645 144.765 52.685C144.825 52.725 144.89 52.745 144.96 52.745ZM148.773 59.45C148.763 59.47 148.718 59.45 148.638 59.39C148.568 59.33 148.498 59.255 148.428 59.165C148.358 59.085 148.328 59.015 148.338 58.955C148.298 58.815 148.303 58.64 148.353 58.43C148.413 58.23 148.538 57.93 148.728 57.53C148.828 57.37 148.918 57.18 148.998 56.96C149.088 56.74 149.188 56.52 149.298 56.3C149.348 56.21 149.458 56.015 149.628 55.715C149.798 55.415 149.978 55.075 150.168 54.695C150.368 54.315 150.533 53.955 150.663 53.615C150.403 53.885 150.163 54.16 149.943 54.44C149.723 54.71 149.518 54.93 149.328 55.1C149.148 55.27 148.978 55.35 148.818 55.34C148.688 55.31 148.548 55.265 148.398 55.205C148.258 55.135 148.163 55.015 148.113 54.845C148.073 54.625 148.058 54.345 148.068 54.005C148.088 53.665 148.153 53.15 148.263 52.46C148.343 52.12 148.388 51.86 148.398 51.68C148.418 51.49 148.413 51.35 148.383 51.26C148.353 51.17 148.298 51.09 148.218 51.02C148.088 50.9 148.018 50.795 148.008 50.705C148.008 50.605 148.078 50.52 148.218 50.45C148.428 50.4 148.578 50.385 148.668 50.405C148.758 50.415 148.868 50.495 148.998 50.645C149.078 50.775 149.148 50.9 149.208 51.02C149.278 51.13 149.313 51.325 149.313 51.605C149.313 51.725 149.293 51.885 149.253 52.085C149.223 52.285 149.193 52.475 149.163 52.655C149.143 52.825 149.128 52.945 149.118 53.015C149.018 53.385 148.953 53.705 148.923 53.975C148.903 54.245 148.918 54.38 148.968 54.38C149.168 54.22 149.358 54.04 149.538 53.84C149.728 53.63 149.923 53.395 150.123 53.135C150.333 52.865 150.563 52.56 150.813 52.22C150.903 52.05 150.993 51.885 151.083 51.725C151.173 51.565 151.248 51.4 151.308 51.23C151.368 51.1 151.428 50.995 151.488 50.915C151.548 50.835 151.598 50.79 151.638 50.78C151.688 50.76 151.748 50.765 151.818 50.795C151.898 50.825 151.968 50.86 152.028 50.9C152.098 50.93 152.133 50.955 152.133 50.975C152.143 50.985 152.168 50.995 152.208 51.005C152.248 51.015 152.288 51.025 152.328 51.035C152.378 51.035 152.403 51.05 152.403 51.08C152.403 51.1 152.378 51.165 152.328 51.275C152.288 51.385 152.238 51.51 152.178 51.65C152.128 51.78 152.083 51.9 152.043 52.01C152.003 52.11 151.988 52.17 151.998 52.19C152.018 52.21 152.003 52.285 151.953 52.415C151.903 52.535 151.843 52.67 151.773 52.82C151.713 52.97 151.658 53.105 151.608 53.225C151.508 53.555 151.393 53.885 151.263 54.215C151.133 54.535 150.978 54.855 150.798 55.175C150.738 55.295 150.648 55.48 150.528 55.73C150.418 55.98 150.308 56.225 150.198 56.465C150.098 56.715 150.018 56.905 149.958 57.035C149.918 57.115 149.858 57.24 149.778 57.41C149.708 57.59 149.628 57.785 149.538 57.995C149.458 58.205 149.378 58.4 149.298 58.58C149.218 58.77 149.158 58.915 149.118 59.015C149.098 59.205 149.053 59.345 148.983 59.435C148.943 59.435 148.898 59.435 148.848 59.435C148.798 59.445 148.773 59.45 148.773 59.45ZM152.115 57.185C152.015 57.185 151.95 57.175 151.92 57.155C151.9 57.145 151.87 57.105 151.83 57.035C151.83 56.965 151.845 56.905 151.875 56.855C151.915 56.805 151.97 56.745 152.04 56.675C152.14 56.575 152.255 56.45 152.385 56.3C152.515 56.16 152.635 56.015 152.745 55.865C152.865 55.715 152.95 55.595 153 55.505C153.04 55.395 153.075 55.265 153.105 55.115C153.145 54.965 153.185 54.8 153.225 54.62C153.225 54.54 153.225 54.47 153.225 54.41C153.235 54.34 153.26 54.285 153.3 54.245C153.37 54.175 153.43 54.145 153.48 54.155C153.54 54.165 153.59 54.225 153.63 54.335C153.68 54.445 153.715 54.61 153.735 54.83C153.775 55.05 153.775 55.25 153.735 55.43C153.695 55.61 153.62 55.83 153.51 56.09C153.49 56.16 153.425 56.265 153.315 56.405C153.205 56.545 153.095 56.675 152.985 56.795C152.875 56.915 152.805 56.975 152.775 56.975C152.735 56.975 152.7 56.985 152.67 57.005C152.64 57.035 152.605 57.07 152.565 57.11C152.525 57.15 152.465 57.17 152.385 57.17C152.315 57.18 152.225 57.185 152.115 57.185ZM160.477 55.775C160.347 55.775 160.242 55.75 160.162 55.7C160.092 55.65 160.002 55.58 159.892 55.49C159.702 55.29 159.567 55.1 159.487 54.92C159.407 54.73 159.382 54.55 159.412 54.38C159.442 54.3 159.452 54.225 159.442 54.155C159.442 54.075 159.442 54.035 159.442 54.035C159.392 53.985 159.377 53.955 159.397 53.945C159.417 53.925 159.437 53.895 159.457 53.855C159.517 53.855 159.537 53.8 159.517 53.69C159.497 53.61 159.537 53.435 159.637 53.165C159.737 52.895 159.862 52.64 160.012 52.4C160.072 52.3 160.162 52.17 160.282 52.01C160.402 51.84 160.532 51.675 160.672 51.515C160.822 51.345 160.957 51.21 161.077 51.11C161.327 50.9 161.547 50.745 161.737 50.645C161.927 50.545 162.132 50.47 162.352 50.42C162.572 50.37 162.722 50.345 162.802 50.345C162.892 50.345 163.012 50.425 163.162 50.585C163.392 50.685 163.557 50.805 163.657 50.945C163.767 51.085 163.837 51.29 163.867 51.56C163.897 51.86 163.872 52.205 163.792 52.595C163.722 52.975 163.487 53.45 163.087 54.02C162.837 54.38 162.607 54.65 162.397 54.83C162.187 55 161.937 55.17 161.647 55.34C161.437 55.48 161.247 55.585 161.077 55.655C160.907 55.715 160.707 55.755 160.477 55.775ZM161.917 54.185C162.157 53.915 162.347 53.66 162.487 53.42C162.637 53.18 162.777 52.875 162.907 52.505C162.947 52.395 162.972 52.26 162.982 52.1C162.992 51.93 162.987 51.775 162.967 51.635C162.957 51.485 162.922 51.4 162.862 51.38C162.742 51.31 162.597 51.29 162.427 51.32C162.257 51.34 162.072 51.435 161.872 51.605C161.562 51.865 161.292 52.19 161.062 52.58C160.832 52.96 160.607 53.395 160.387 53.885C160.237 54.245 160.202 54.535 160.282 54.755C160.372 54.965 160.557 55.04 160.837 54.98C161.127 54.91 161.487 54.645 161.917 54.185ZM168.255 55.97C168.185 56.01 168.09 55.995 167.97 55.925C167.86 55.855 167.75 55.75 167.64 55.61C167.57 55.49 167.52 55.36 167.49 55.22C167.47 55.08 167.46 54.885 167.46 54.635C167.47 54.435 167.46 54.305 167.43 54.245C167.41 54.185 167.355 54.195 167.265 54.275C167.175 54.345 167.02 54.49 166.8 54.71C166.55 54.96 166.31 55.155 166.08 55.295C165.86 55.435 165.68 55.5 165.54 55.49C165.47 55.49 165.39 55.455 165.3 55.385C165.22 55.305 165.145 55.21 165.075 55.1C165.005 54.98 164.945 54.86 164.895 54.74C164.835 54.52 164.825 54.24 164.865 53.9C164.915 53.55 164.995 53.185 165.105 52.805C165.215 52.425 165.34 52.065 165.48 51.725C165.63 51.385 165.78 51.11 165.93 50.9C166.09 50.69 166.23 50.585 166.35 50.585C166.43 50.585 166.5 50.625 166.56 50.705C166.63 50.785 166.7 50.91 166.77 51.08C166.81 51.15 166.825 51.21 166.815 51.26C166.815 51.31 166.775 51.37 166.695 51.44C166.605 51.56 166.5 51.74 166.38 51.98C166.27 52.22 166.16 52.48 166.05 52.76C165.95 53.04 165.86 53.31 165.78 53.57C165.7 53.83 165.645 54.045 165.615 54.215C165.585 54.375 165.59 54.455 165.63 54.455C165.77 54.455 165.935 54.4 166.125 54.29C166.325 54.17 166.515 54.025 166.695 53.855C166.905 53.645 167.09 53.415 167.25 53.165C167.42 52.915 167.59 52.65 167.76 52.37C167.89 52.17 168.025 51.95 168.165 51.71C168.315 51.47 168.41 51.3 168.45 51.2C168.59 50.94 168.695 50.765 168.765 50.675C168.835 50.575 168.92 50.51 169.02 50.48C169.07 50.48 169.115 50.48 169.155 50.48C169.205 50.48 169.23 50.48 169.23 50.48C169.29 50.49 169.36 50.535 169.44 50.615C169.52 50.655 169.565 50.695 169.575 50.735C169.585 50.765 169.59 50.805 169.59 50.855C169.55 50.955 169.485 51.105 169.395 51.305C169.315 51.495 169.255 51.635 169.215 51.725C169.025 52.155 168.835 52.58 168.645 53C168.465 53.41 168.335 53.83 168.255 54.26C168.235 54.4 168.23 54.565 168.24 54.755C168.26 54.935 168.29 55.065 168.33 55.145C168.36 55.205 168.395 55.275 168.435 55.355C168.485 55.425 168.54 55.485 168.6 55.535C168.69 55.595 168.705 55.66 168.645 55.73C168.595 55.8 168.525 55.86 168.435 55.91C168.345 55.95 168.285 55.97 168.255 55.97ZM170.567 55.475C170.477 55.405 170.412 55.335 170.372 55.265C170.342 55.195 170.342 55.06 170.372 54.86C170.402 54.58 170.442 54.335 170.492 54.125C170.542 53.905 170.602 53.655 170.672 53.375C170.692 53.255 170.747 53.05 170.837 52.76C170.937 52.47 171.057 52.155 171.197 51.815C171.337 51.475 171.477 51.155 171.617 50.855C171.757 50.545 171.877 50.315 171.977 50.165C172.057 50.105 172.152 50.08 172.262 50.09C172.382 50.1 172.482 50.145 172.562 50.225C172.672 50.315 172.687 50.475 172.607 50.705C172.537 50.925 172.387 51.275 172.157 51.755C172.037 52.025 171.947 52.23 171.887 52.37C171.827 52.5 171.802 52.58 171.812 52.61C171.822 52.63 171.867 52.615 171.947 52.565C172.007 52.455 172.117 52.33 172.277 52.19C172.437 52.04 172.607 51.895 172.787 51.755C172.967 51.615 173.137 51.49 173.297 51.38C173.457 51.27 173.567 51.2 173.627 51.17C173.707 51.12 173.797 51.08 173.897 51.05C174.007 51.01 174.082 50.98 174.122 50.96C174.352 50.85 174.587 50.81 174.827 50.84C175.067 50.87 175.217 50.96 175.277 51.11C175.287 51.19 175.317 51.25 175.367 51.29C175.427 51.33 175.457 51.35 175.457 51.35C175.497 51.35 175.517 51.365 175.517 51.395C175.527 51.425 175.532 51.44 175.532 51.44C175.532 51.51 175.477 51.555 175.367 51.575C175.267 51.585 175.137 51.595 174.977 51.605C174.847 51.615 174.732 51.64 174.632 51.68C174.532 51.72 174.412 51.77 174.272 51.83C173.892 52.05 173.527 52.265 173.177 52.475C172.837 52.685 172.507 52.965 172.187 53.315C172.117 53.395 172.047 53.49 171.977 53.6C171.907 53.71 171.832 53.83 171.752 53.96C171.702 54.01 171.652 54.12 171.602 54.29C171.552 54.46 171.507 54.625 171.467 54.785C171.437 54.935 171.422 55.025 171.422 55.055C171.422 55.055 171.407 55.105 171.377 55.205C171.347 55.295 171.297 55.385 171.227 55.475C171.107 55.635 171.007 55.715 170.927 55.715C170.847 55.715 170.727 55.635 170.567 55.475ZM179.38 58.625C179.26 58.705 179.135 58.7 179.005 58.61C178.885 58.52 178.795 58.385 178.735 58.205C178.675 58.025 178.68 57.835 178.75 57.635C178.77 57.575 178.8 57.475 178.84 57.335C178.88 57.205 178.905 57.09 178.915 56.99C178.925 56.92 178.955 56.8 179.005 56.63C179.055 56.47 179.11 56.31 179.17 56.15C179.24 55.99 179.295 55.875 179.335 55.805C179.395 55.705 179.435 55.59 179.455 55.46C179.485 55.33 179.5 55.23 179.5 55.16C179.52 55.09 179.545 55.01 179.575 54.92C179.615 54.83 179.655 54.76 179.695 54.71C179.715 54.63 179.745 54.545 179.785 54.455C179.825 54.355 179.87 54.27 179.92 54.2C179.94 54.13 179.955 54.045 179.965 53.945C179.985 53.845 180.015 53.79 180.055 53.78C180.065 53.74 180.07 53.7 180.07 53.66C180.08 53.62 180.1 53.565 180.13 53.495C180.15 53.385 180.195 53.225 180.265 53.015C180.335 52.805 180.42 52.575 180.52 52.325C180.63 52.035 180.68 51.76 180.67 51.5C180.67 51.23 180.595 51.065 180.445 51.005C180.365 50.965 180.315 50.91 180.295 50.84C180.275 50.76 180.285 50.68 180.325 50.6C180.365 50.52 180.425 50.465 180.505 50.435C180.595 50.395 180.69 50.38 180.79 50.39C180.9 50.4 180.995 50.42 181.075 50.45C181.155 50.47 181.19 50.49 181.18 50.51C181.18 50.56 181.205 50.59 181.255 50.6C181.275 50.57 181.315 50.605 181.375 50.705C181.445 50.795 181.51 50.9 181.57 51.02C181.63 51.14 181.66 51.225 181.66 51.275C181.64 51.315 181.63 51.34 181.63 51.35C181.63 51.35 181.65 51.35 181.69 51.35C181.69 51.35 181.745 51.325 181.855 51.275C181.965 51.215 182.08 51.15 182.2 51.08C182.33 51 182.415 50.94 182.455 50.9C182.455 50.9 182.48 50.89 182.53 50.87C182.59 50.84 182.64 50.805 182.68 50.765C182.88 50.685 183.095 50.67 183.325 50.72C183.565 50.77 183.755 50.86 183.895 50.99C184.095 51.24 184.195 51.48 184.195 51.71C184.205 51.94 184.14 52.23 184 52.58C183.98 52.63 183.935 52.715 183.865 52.835C183.805 52.945 183.745 53.05 183.685 53.15C183.625 53.24 183.595 53.285 183.595 53.285C183.365 53.645 183.095 53.945 182.785 54.185C182.475 54.425 182.16 54.635 181.84 54.815C181.74 54.885 181.635 54.94 181.525 54.98C181.425 55.01 181.335 55.03 181.255 55.04C181.175 55.04 181.12 55.03 181.09 55.01C180.98 54.93 180.88 54.76 180.79 54.5C180.74 54.63 180.69 54.76 180.64 54.89C180.6 55.01 180.575 55.09 180.565 55.13C180.555 55.2 180.545 55.26 180.535 55.31C180.525 55.35 180.5 55.385 180.46 55.415C180.46 55.415 180.455 55.435 180.445 55.475C180.435 55.515 180.4 55.575 180.34 55.655C180.24 55.945 180.15 56.195 180.07 56.405C179.99 56.625 179.925 56.81 179.875 56.96C179.825 57.12 179.785 57.26 179.755 57.38C179.735 57.65 179.68 57.915 179.59 58.175C179.5 58.445 179.43 58.595 179.38 58.625ZM181.165 54.35C181.205 54.33 181.29 54.275 181.42 54.185C181.56 54.085 181.715 53.97 181.885 53.84C182.055 53.7 182.21 53.57 182.35 53.45C182.5 53.33 182.6 53.24 182.65 53.18C182.73 53.09 182.805 52.995 182.875 52.895C182.945 52.785 183 52.665 183.04 52.535C183.07 52.455 183.105 52.365 183.145 52.265C183.185 52.165 183.22 52.07 183.25 51.98C183.29 51.9 183.305 51.82 183.295 51.74C183.295 51.65 183.265 51.575 183.205 51.515C183.165 51.505 183.045 51.535 182.845 51.605C182.645 51.665 182.425 51.77 182.185 51.92C181.945 52.06 181.735 52.245 181.555 52.475C181.345 52.745 181.19 53.025 181.09 53.315C181 53.605 180.96 53.85 180.97 54.05C180.99 54.25 181.055 54.35 181.165 54.35ZM185.919 55.505C185.799 55.525 185.669 55.505 185.529 55.445C185.389 55.385 185.264 55.3 185.154 55.19C185.054 55.08 184.989 54.965 184.959 54.845C184.919 54.635 184.944 54.375 185.034 54.065C185.134 53.745 185.274 53.41 185.454 53.06C185.644 52.7 185.854 52.355 186.084 52.025C186.324 51.695 186.569 51.41 186.819 51.17C187.079 50.92 187.319 50.75 187.539 50.66C187.649 50.59 187.734 50.545 187.794 50.525C187.864 50.495 187.934 50.49 188.004 50.51C188.084 50.53 188.199 50.58 188.349 50.66C188.489 50.7 188.594 50.745 188.664 50.795C188.734 50.845 188.824 50.945 188.934 51.095C189.014 51.245 189.074 51.395 189.114 51.545C189.154 51.695 189.189 51.865 189.219 52.055C189.299 52.305 189.329 52.47 189.309 52.55C189.289 52.62 189.259 52.675 189.219 52.715C189.139 52.815 189.119 52.865 189.159 52.865C189.159 52.865 189.154 52.885 189.144 52.925C189.144 52.955 189.124 53.005 189.084 53.075C189.014 53.295 188.959 53.525 188.919 53.765C188.889 53.995 188.894 54.185 188.934 54.335C189.014 54.555 189.159 54.685 189.369 54.725C189.579 54.765 189.794 54.675 190.014 54.455C190.124 54.375 190.229 54.305 190.329 54.245C190.429 54.175 190.479 54.18 190.479 54.26C190.479 54.26 190.494 54.275 190.524 54.305C190.554 54.325 190.589 54.335 190.629 54.335C190.679 54.335 190.709 54.355 190.719 54.395C190.739 54.435 190.739 54.49 190.719 54.56C190.709 54.62 190.679 54.69 190.629 54.77C190.479 54.92 190.404 55.02 190.404 55.07C190.404 55.07 190.384 55.09 190.344 55.13C190.314 55.16 190.259 55.21 190.179 55.28C189.999 55.39 189.769 55.445 189.489 55.445C189.219 55.445 189.009 55.39 188.859 55.28C188.709 55.17 188.569 55.02 188.439 54.83C188.319 54.64 188.239 54.475 188.199 54.335L188.124 54.185L187.689 54.47C187.579 54.58 187.459 54.685 187.329 54.785C187.209 54.885 187.129 54.955 187.089 54.995C187.059 55.035 187.024 55.07 186.984 55.1C186.954 55.13 186.919 55.145 186.879 55.145C186.839 55.145 186.804 55.145 186.774 55.145C186.744 55.145 186.729 55.145 186.729 55.145C186.729 55.185 186.679 55.235 186.579 55.295C186.489 55.355 186.379 55.405 186.249 55.445C186.129 55.485 186.019 55.505 185.919 55.505ZM185.769 54.695C185.829 54.695 185.934 54.65 186.084 54.56C186.244 54.46 186.419 54.345 186.609 54.215C186.809 54.085 186.984 53.955 187.134 53.825C187.294 53.695 187.404 53.595 187.464 53.525C187.504 53.485 187.569 53.42 187.659 53.33C187.749 53.23 187.829 53.145 187.899 53.075C188.129 52.815 188.289 52.53 188.379 52.22C188.469 51.9 188.459 51.65 188.349 51.47C188.309 51.36 188.259 51.3 188.199 51.29C188.139 51.28 188.014 51.315 187.824 51.395C187.704 51.465 187.554 51.6 187.374 51.8C187.204 51.99 187.019 52.215 186.819 52.475C186.629 52.725 186.449 52.985 186.279 53.255C186.109 53.525 185.969 53.775 185.859 54.005C185.749 54.235 185.694 54.415 185.694 54.545C185.694 54.585 185.704 54.62 185.724 54.65C185.754 54.68 185.769 54.695 185.769 54.695ZM192.521 55.79C192.021 55.79 191.656 55.61 191.426 55.25C191.356 55.15 191.321 55.05 191.321 54.95C191.331 54.84 191.361 54.765 191.411 54.725C191.471 54.685 191.541 54.72 191.621 54.83C191.761 54.91 191.961 54.95 192.221 54.95C192.351 54.95 192.486 54.94 192.626 54.92C192.766 54.89 192.906 54.85 193.046 54.8C193.196 54.73 193.296 54.67 193.346 54.62C193.396 54.56 193.386 54.51 193.316 54.47H193.331C193.071 54.4 192.806 54.29 192.536 54.14C192.276 53.98 192.051 53.81 191.861 53.63C191.671 53.44 191.561 53.27 191.531 53.12C191.451 52.81 191.471 52.495 191.591 52.175C191.711 51.845 191.881 51.555 192.101 51.305C192.181 51.255 192.281 51.195 192.401 51.125C192.521 51.045 192.616 51 192.686 50.99V51.005C192.876 50.805 193.106 50.645 193.376 50.525C193.656 50.405 193.951 50.295 194.261 50.195L194.486 50.165C194.606 50.145 194.706 50.135 194.786 50.135C194.776 50.135 194.796 50.145 194.846 50.165C194.896 50.175 194.941 50.185 194.981 50.195C195.041 50.225 195.091 50.24 195.131 50.24C195.261 50.26 195.381 50.32 195.491 50.42C195.601 50.52 195.686 50.64 195.746 50.78C195.816 50.91 195.841 51.035 195.821 51.155C195.801 51.345 195.741 51.515 195.641 51.665C195.551 51.815 195.441 51.9 195.311 51.92C195.331 51.91 195.316 51.895 195.266 51.875C195.226 51.845 195.181 51.815 195.131 51.785L195.086 51.815C195.086 51.815 195.081 51.805 195.071 51.785C195.071 51.755 195.061 51.72 195.041 51.68C195.011 51.62 194.996 51.555 194.996 51.485C194.996 51.405 195.001 51.32 195.011 51.23C195.031 51.12 195.031 51.055 195.011 51.035C195.001 51.015 194.936 51 194.816 50.99C194.676 50.96 194.471 50.985 194.201 51.065C193.941 51.145 193.721 51.255 193.541 51.395C193.321 51.535 193.136 51.67 192.986 51.8C192.836 51.92 192.716 52.04 192.626 52.16C192.536 52.27 192.456 52.4 192.386 52.55C192.336 52.62 192.291 52.69 192.251 52.76C192.221 52.82 192.206 52.875 192.206 52.925C192.206 53.035 192.286 53.15 192.446 53.27C192.616 53.38 192.866 53.51 193.196 53.66C193.456 53.77 193.676 53.89 193.856 54.02C194.036 54.15 194.161 54.3 194.231 54.47C194.251 54.51 194.256 54.56 194.246 54.62C194.246 54.67 194.236 54.705 194.216 54.725C194.236 54.745 194.246 54.76 194.246 54.77V54.755C194.326 54.875 194.326 55 194.246 55.13C194.176 55.26 194.051 55.375 193.871 55.475C193.701 55.565 193.491 55.635 193.241 55.685H193.256C193.126 55.725 192.996 55.755 192.866 55.775C192.746 55.785 192.631 55.79 192.521 55.79ZM197.168 56.06C196.978 55.98 196.798 55.875 196.628 55.745C196.458 55.605 196.348 55.49 196.298 55.4C196.298 55.31 196.313 55.25 196.343 55.22C196.373 55.18 196.458 55.165 196.598 55.175C196.748 55.175 196.988 55.195 197.318 55.235C197.438 55.235 197.588 55.225 197.768 55.205C197.948 55.185 198.113 55.155 198.263 55.115C198.423 55.075 198.513 55.025 198.533 54.965C198.583 54.965 198.593 54.95 198.563 54.92C198.533 54.88 198.498 54.84 198.458 54.8C198.418 54.8 198.373 54.785 198.323 54.755C198.273 54.715 198.228 54.695 198.188 54.695C198.188 54.645 198.138 54.59 198.038 54.53C197.948 54.46 197.853 54.405 197.753 54.365C197.533 54.185 197.343 54.025 197.183 53.885C197.023 53.735 196.963 53.635 197.003 53.585C197.003 53.545 197.003 53.525 197.003 53.525C197.003 53.515 197.003 53.51 197.003 53.51C196.933 53.51 196.853 53.41 196.763 53.21C196.683 53.01 196.643 52.83 196.643 52.67C196.643 52.55 196.678 52.4 196.748 52.22C196.818 52.03 196.913 51.835 197.033 51.635C197.153 51.435 197.278 51.27 197.408 51.14C197.588 50.97 197.813 50.79 198.083 50.6C198.353 50.4 198.618 50.225 198.878 50.075C199.148 49.915 199.373 49.81 199.553 49.76C199.733 49.69 199.898 49.655 200.048 49.655C200.208 49.655 200.348 49.69 200.468 49.76C200.568 49.81 200.658 49.885 200.738 49.985C200.828 50.075 200.903 50.17 200.963 50.27C201.033 50.36 201.078 50.44 201.098 50.51C201.098 50.63 201.088 50.765 201.068 50.915C201.048 51.055 201.018 51.18 200.978 51.29C200.948 51.4 200.898 51.455 200.828 51.455C200.828 51.455 200.813 51.46 200.783 51.47C200.763 51.47 200.753 51.495 200.753 51.545C200.753 51.645 200.678 51.76 200.528 51.89C200.338 52.02 200.173 52.1 200.033 52.13C199.893 52.15 199.808 52.095 199.778 51.965C199.748 51.925 199.728 51.89 199.718 51.86C199.708 51.83 199.683 51.815 199.643 51.815C199.643 51.815 199.628 51.8 199.598 51.77C199.568 51.74 199.553 51.69 199.553 51.62C199.553 51.58 199.568 51.545 199.598 51.515C199.628 51.475 199.643 51.455 199.643 51.455C199.693 51.455 199.758 51.4 199.838 51.29C199.918 51.17 199.988 51.045 200.048 50.915C200.118 50.775 200.153 50.68 200.153 50.63C200.153 50.57 200.143 50.535 200.123 50.525C200.113 50.515 200.068 50.51 199.988 50.51C199.848 50.57 199.678 50.65 199.478 50.75C199.278 50.85 199.088 50.95 198.908 51.05C198.738 51.14 198.613 51.225 198.533 51.305C198.493 51.375 198.468 51.42 198.458 51.44C198.448 51.45 198.423 51.455 198.383 51.455C198.383 51.415 198.348 51.435 198.278 51.515C198.218 51.585 198.138 51.685 198.038 51.815C197.948 51.945 197.858 52.075 197.768 52.205C197.688 52.325 197.628 52.415 197.588 52.475C197.568 52.495 197.543 52.555 197.513 52.655C197.493 52.745 197.483 52.83 197.483 52.91C197.443 53.03 197.448 53.115 197.498 53.165C197.548 53.205 197.658 53.295 197.828 53.435C198.178 53.695 198.453 53.91 198.653 54.08C198.853 54.25 199.003 54.39 199.103 54.5C199.203 54.61 199.263 54.71 199.283 54.8C199.463 55.1 199.518 55.33 199.448 55.49C199.378 55.65 199.208 55.79 198.938 55.91C198.838 55.96 198.673 56 198.443 56.03C198.213 56.06 197.978 56.075 197.738 56.075C197.498 56.085 197.308 56.08 197.168 56.06ZM201.531 55.52C201.451 55.44 201.391 55.34 201.351 55.22C201.321 55.1 201.311 54.98 201.321 54.86C201.331 54.74 201.356 54.64 201.396 54.56C201.396 54.48 201.406 54.42 201.426 54.38C201.456 54.33 201.466 54.285 201.456 54.245C201.446 54.205 201.456 54.135 201.486 54.035C201.516 53.935 201.546 53.84 201.576 53.75C201.646 53.59 201.721 53.4 201.801 53.18C201.881 52.95 201.956 52.725 202.026 52.505C202.096 52.285 202.156 52.095 202.206 51.935C202.256 51.775 202.286 51.675 202.296 51.635C202.296 51.515 202.376 51.45 202.536 51.44C202.656 51.4 202.746 51.4 202.806 51.44C202.866 51.47 202.946 51.565 203.046 51.725C203.126 51.805 203.156 51.925 203.136 52.085C203.116 52.245 203.051 52.445 202.941 52.685C202.901 52.765 202.851 52.88 202.791 53.03C202.741 53.18 202.706 53.315 202.686 53.435C202.646 53.515 202.596 53.63 202.536 53.78C202.486 53.92 202.441 54.055 202.401 54.185C202.381 54.235 202.361 54.31 202.341 54.41C202.321 54.5 202.296 54.6 202.266 54.71C202.236 54.81 202.196 54.9 202.146 54.98C202.056 55.39 201.971 55.63 201.891 55.7C201.821 55.77 201.701 55.71 201.531 55.52ZM202.986 49.43C202.936 49.38 202.891 49.31 202.851 49.22C202.811 49.12 202.786 49.03 202.776 48.95C202.766 48.86 202.776 48.815 202.806 48.815C202.886 48.805 202.981 48.72 203.091 48.56C203.201 48.4 203.246 48.26 203.226 48.14C203.226 48.1 203.241 48.065 203.271 48.035C203.301 47.995 203.336 47.97 203.376 47.96C203.496 47.88 203.611 47.87 203.721 47.93C203.841 47.98 203.951 48.085 204.051 48.245C204.141 48.435 204.166 48.595 204.126 48.725C204.086 48.845 203.976 49.015 203.796 49.235C203.646 49.435 203.506 49.545 203.376 49.565C203.256 49.585 203.126 49.54 202.986 49.43ZM205.739 55.43C205.529 55.47 205.394 55.485 205.334 55.475C205.284 55.455 205.204 55.395 205.094 55.295C204.934 55.215 204.799 55.115 204.689 54.995C204.589 54.875 204.514 54.75 204.464 54.62C204.424 54.48 204.409 54.365 204.419 54.275C204.449 53.925 204.534 53.55 204.674 53.15C204.814 52.75 204.984 52.365 205.184 51.995C205.384 51.625 205.599 51.31 205.829 51.05C206.069 50.78 206.299 50.605 206.519 50.525C206.719 50.445 206.909 50.415 207.089 50.435C207.269 50.455 207.399 50.55 207.479 50.72C207.629 51.01 207.594 51.195 207.374 51.275C207.344 51.275 207.309 51.29 207.269 51.32C207.229 51.34 207.209 51.37 207.209 51.41C207.249 51.43 207.359 51.435 207.539 51.425C207.719 51.405 207.899 51.375 208.079 51.335C208.269 51.285 208.394 51.235 208.454 51.185C208.514 51.155 208.559 51.14 208.589 51.14C208.619 51.14 208.694 51.15 208.814 51.17C208.984 51.22 209.069 51.28 209.069 51.35C209.069 51.39 209.084 51.43 209.114 51.47C209.144 51.5 209.179 51.515 209.219 51.515C209.289 51.525 209.279 51.57 209.189 51.65C209.109 51.73 208.969 51.84 208.769 51.98C208.579 52.1 208.459 52.18 208.409 52.22C208.369 52.25 208.364 52.32 208.394 52.43C208.474 52.62 208.479 52.84 208.409 53.09C208.339 53.34 208.214 53.595 208.034 53.855C207.854 54.115 207.634 54.36 207.374 54.59C207.124 54.81 206.854 55 206.564 55.16C206.284 55.31 206.009 55.4 205.739 55.43ZM205.484 54.77C205.524 54.77 205.594 54.75 205.694 54.71C205.794 54.66 205.874 54.62 205.934 54.59C205.974 54.55 206.024 54.505 206.084 54.455C206.154 54.395 206.209 54.36 206.249 54.35C206.289 54.35 206.339 54.335 206.399 54.305C206.459 54.265 206.544 54.19 206.654 54.08C206.764 53.96 206.909 53.785 207.089 53.555C207.289 53.335 207.444 53.135 207.554 52.955C207.664 52.765 207.694 52.59 207.644 52.43C207.634 52.39 207.604 52.365 207.554 52.355C207.514 52.345 207.459 52.32 207.389 52.28C207.289 52.28 207.194 52.255 207.104 52.205C207.024 52.145 206.929 52.07 206.819 51.98L206.579 51.68L206.324 51.935C206.164 52.095 205.994 52.335 205.814 52.655C205.644 52.965 205.499 53.285 205.379 53.615C205.259 53.935 205.189 54.19 205.169 54.38C205.159 54.53 205.184 54.63 205.244 54.68C205.304 54.73 205.384 54.76 205.484 54.77ZM214.102 55.82C214.002 55.82 213.897 55.765 213.787 55.655C213.687 55.545 213.597 55.41 213.517 55.25C213.447 55.08 213.412 54.92 213.412 54.77C213.412 54.62 213.447 54.34 213.517 53.93C213.597 53.52 213.692 53.105 213.802 52.685C213.882 52.425 213.907 52.275 213.877 52.235C213.847 52.195 213.712 52.25 213.472 52.4C213.332 52.47 213.207 52.545 213.097 52.625C212.987 52.695 212.892 52.775 212.812 52.865C212.762 52.905 212.687 52.97 212.587 53.06C212.487 53.15 212.382 53.235 212.272 53.315C212.142 53.415 211.977 53.555 211.777 53.735C211.577 53.915 211.377 54.095 211.177 54.275C210.987 54.455 210.842 54.595 210.742 54.695C210.722 54.735 210.692 54.77 210.652 54.8C210.612 54.83 210.567 54.85 210.517 54.86C210.467 54.86 210.412 54.85 210.352 54.83C210.242 54.8 210.137 54.735 210.037 54.635C209.947 54.535 209.902 54.42 209.902 54.29C209.902 54.19 209.942 54.02 210.022 53.78C210.102 53.53 210.207 53.23 210.337 52.88C210.477 52.53 210.637 52.16 210.817 51.77C210.847 51.72 210.872 51.66 210.892 51.59C210.912 51.51 210.927 51.425 210.937 51.335C210.957 51.245 210.967 51.16 210.967 51.08C210.967 51.03 210.972 50.98 210.982 50.93C211.002 50.87 211.022 50.815 211.042 50.765C211.072 50.705 211.097 50.665 211.117 50.645C211.157 50.565 211.227 50.545 211.327 50.585C211.427 50.615 211.512 50.685 211.582 50.795C211.732 50.935 211.807 51.11 211.807 51.32C211.817 51.53 211.767 51.79 211.657 52.1C211.617 52.17 211.582 52.24 211.552 52.31C211.532 52.37 211.512 52.425 211.492 52.475C211.472 52.515 211.457 52.55 211.447 52.58C211.437 52.6 211.432 52.61 211.432 52.61C211.472 52.61 211.562 52.565 211.702 52.475C211.842 52.385 212.007 52.285 212.197 52.175C212.347 52.065 212.477 51.965 212.587 51.875C212.707 51.775 212.807 51.7 212.887 51.65C212.967 51.59 213.017 51.56 213.037 51.56C213.077 51.56 213.127 51.545 213.187 51.515C213.247 51.485 213.297 51.45 213.337 51.41C213.377 51.37 213.407 51.35 213.427 51.35C213.457 51.34 213.472 51.335 213.472 51.335C213.472 51.335 213.492 51.335 213.532 51.335C213.572 51.325 213.612 51.3 213.652 51.26C213.732 51.2 213.837 51.185 213.967 51.215C214.097 51.235 214.217 51.285 214.327 51.365C214.437 51.445 214.492 51.535 214.492 51.635C214.492 51.675 214.502 51.71 214.522 51.74C214.552 51.76 214.567 51.77 214.567 51.77C214.647 51.77 214.697 51.895 214.717 52.145C214.747 52.395 214.722 52.635 214.642 52.865C214.642 53.015 214.612 53.195 214.552 53.405C214.502 53.615 214.457 53.815 214.417 54.005C214.337 54.255 214.282 54.475 214.252 54.665C214.222 54.855 214.217 55.015 214.237 55.145C214.257 55.275 214.292 55.38 214.342 55.46C214.382 55.53 214.382 55.61 214.342 55.7C214.302 55.78 214.222 55.82 214.102 55.82Z" fill="black"/>
<g style="mix-blend-mode:darken">
<circle cx="35" cy="37" r="34.5" fill="white"/>
<circle cx="35" cy="37" r="34.5" stroke="black"/>
</g>
<g style="mix-blend-mode:darken">
<circle cx="37" cy="37" r="34.5" fill="white"/>
<circle cx="37" cy="37" r="34.5" stroke="black"/>
</g>
<g style="mix-blend-mode:darken">
<path d="M70.5 35C70.5 54.0606 55.2709 69.5 36.5 69.5C17.7291 69.5 2.5 54.0606 2.5 35C2.5 15.9394 17.7291 0.5 36.5 0.5C55.2709 0.5 70.5 15.9394 70.5 35Z" fill="white"/>
<path d="M70.5 35C70.5 54.0606 55.2709 69.5 36.5 69.5C17.7291 69.5 2.5 54.0606 2.5 35C2.5 15.9394 17.7291 0.5 36.5 0.5C55.2709 0.5 70.5 15.9394 70.5 35Z" stroke="black"/>
</g>
<path d="M18.1426 16.7229C18.416 16.6144 18.965 16.3974 19.4359 16.0719C19.9111 15.7464 20.3082 15.3146 20.6467 15.0216C20.983 14.7309 21.2586 14.5833 21.5233 14.4683C21.7902 14.3533 22.0528 14.2752 22.3349 14.2123C22.6148 14.1493 22.9099 14.1038 23.0878 14.0061C23.2636 13.9085 23.3222 13.7609 23.3157 13.5222C23.3092 13.2814 23.2419 12.9516 23.2029 12.587C23.1638 12.2224 23.1508 11.8232 23.1812 11.463C23.2094 11.1049 23.2788 10.7838 23.3526 10.556C23.4285 10.3281 23.5066 10.1914 23.6716 10.2435C23.8365 10.2956 24.0882 10.5343 24.3833 10.8771C24.6783 11.2199 25.0212 11.6648 25.3055 12.0793C25.5919 12.4959 25.8198 12.8843 26.0303 13.2315C26.2408 13.5787 26.4361 13.8868 26.5836 14.0799C26.7312 14.273 26.8331 14.3533 26.9894 14.4032C27.1434 14.4553 27.3474 14.4792 27.5362 14.5291C27.725 14.5811 27.8942 14.6593 28.0548 14.7569C28.2154 14.8546 28.3629 14.9674 28.4714 15.0303C28.5778 15.0933 28.6472 15.1041 28.8078 14.9717C28.9662 14.8415 29.2179 14.566 29.5543 14.2535C29.8906 13.941 30.3138 13.5873 30.6892 13.2943C31.0667 13.0036 31.3965 12.7757 31.6938 12.5696C31.9889 12.3634 32.2537 12.1833 32.4121 12.0922C32.5727 12.0011 32.6291 12.0011 32.6573 12.281C32.6855 12.5609 32.6855 13.1186 32.6508 13.9518C32.6161 14.7829 32.5466 15.8896 32.4555 16.7337C32.3644 17.5777 32.2515 18.1593 32.1474 18.6041C32.0432 19.049 31.9521 19.3571 31.874 19.637C31.7937 19.917 31.7264 20.1665 31.7156 20.6417C31.7047 21.1148 31.7503 21.8113 31.7676 22.5751C31.785 23.339 31.7741 24.1722 31.7221 24.8558C31.67 25.5393 31.5789 26.0774 31.4986 26.6243C31.4183 27.1711 31.351 27.7309 31.3402 28.2213C31.3293 28.7117 31.3749 29.1348 31.4443 29.5732C31.5116 30.0115 31.6027 30.4694 31.8154 30.9012C32.0259 31.3352 32.3579 31.7453 32.8591 32.1901C33.3604 32.6349 34.033 33.1145 34.7925 33.6787C35.5498 34.2429 36.3961 34.8938 37.2901 35.8009C38.1863 36.7079 39.1324 37.871 39.8745 39.097C40.6166 40.323 41.1526 41.6119 41.5518 42.838C41.9533 44.0661 42.2136 45.2292 42.3677 46.4183C42.5218 47.6096 42.5674 48.8313 42.563 49.9488C42.5565 51.0685 42.5001 52.0819 42.409 52.8631C42.3178 53.6443 42.192 54.1932 42.1139 54.5447C42.0336 54.8984 41.9989 55.0568 42.0661 55.1328C42.1356 55.2066 42.307 55.1957 42.7778 55.0134C43.253 54.8312 44.0255 54.4775 44.7286 53.8785C45.4295 53.2797 46.0566 52.4355 46.4689 51.535C46.879 50.6345 47.0743 49.6753 47.1134 48.6729C47.1524 47.6704 47.0396 46.6201 46.6685 45.3203C46.2975 44.0206 45.6703 42.469 44.8827 40.872C44.0951 39.2749 43.1489 37.6323 42.2376 36.0829C41.324 34.5314 40.4473 33.0711 39.6554 31.576C38.8612 30.0831 38.156 28.5533 37.6721 27.0039C37.1882 25.4524 36.9234 23.8792 36.8627 22.4753C36.7998 21.0714 36.9365 19.841 37.2316 18.6085C37.5267 17.376 37.9846 16.1435 38.6182 15.0563C39.2518 13.9671 40.0612 13.0209 40.9269 12.268C41.7949 11.515 42.7193 10.9552 43.6133 10.5972C44.5008 10.2391 45.3688 10.0786 46.2302 10.0221C47.0917 9.9657 47.9466 10.0113 48.8493 10.2283C49.7498 10.4452 50.6959 10.8336 51.514 11.3696C52.3299 11.9056 53.0134 12.5891 53.5667 13.5135C54.1201 14.438 54.5432 15.601 54.7363 16.5319C54.9316 17.4607 54.8947 18.1572 54.7255 18.8993C54.5519 19.6414 54.2459 20.4269 53.8749 21.0605C53.5039 21.6941 53.072 22.1737 52.5816 22.56C52.0891 22.9462 51.5444 23.2435 50.9563 23.3932C50.3683 23.5408 49.7412 23.5408 49.177 23.3932C48.6107 23.2435 48.1094 22.9484 47.7839 22.5838C47.4584 22.2193 47.3087 21.7853 47.2545 21.3817C47.1959 20.9759 47.2328 20.6005 47.4259 20.2685C47.6212 19.9365 47.9727 19.6522 48.3568 19.3094C48.7387 18.9665 49.151 18.5673 49.3485 18.1528C49.5481 17.7362 49.5373 17.3022 49.4461 16.9159C49.355 16.5275 49.1836 16.1868 48.8711 15.8961C48.5586 15.6053 48.1008 15.3645 47.5539 15.2733C47.0071 15.1822 46.367 15.2386 45.8201 15.3818C45.2733 15.525 44.8155 15.7529 44.3533 16.1456C43.8911 16.5406 43.4245 17.0982 43.1056 17.6754C42.7866 18.2505 42.6152 18.845 42.472 19.6783C42.3288 20.5115 42.2138 21.5835 42.3461 22.7922C42.4763 24.0008 42.8539 25.3484 43.3508 26.6308C43.8455 27.9154 44.4618 29.1349 45.2321 30.4694C46.0024 31.8039 46.9268 33.2513 47.747 34.5532C48.5695 35.853 49.2855 37.0075 49.943 38.2725C50.5983 39.5397 51.1907 40.9198 51.6703 42.3454C52.1498 43.7711 52.5144 45.2423 52.6294 46.72C52.7422 48.1955 52.6077 49.6798 52.4471 50.7626C52.2866 51.8454 52.1043 52.5311 51.7441 53.3339C51.386 54.139 50.8479 55.0612 50.3532 55.7339C49.8563 56.4065 49.3984 56.8297 48.8364 57.2723C48.2722 57.7172 47.5973 58.1859 46.8813 58.5613C46.1608 58.9388 45.397 59.2231 44.3902 59.4336C43.3812 59.6462 42.127 59.7829 40.6883 59.8567C39.2496 59.9305 37.6308 59.9413 35.7256 59.9543C33.8204 59.9652 31.631 59.976 30.1078 59.9826C28.5845 59.9891 27.7296 59.9891 27.1199 59.9652C26.5101 59.9435 26.1434 59.8979 25.9112 59.7547C25.6768 59.6115 25.5749 59.3728 25.5749 59.0517C25.5749 58.7327 25.6768 58.3334 25.87 58.0427C26.0631 57.7519 26.3495 57.5696 26.6859 57.472C27.0222 57.3765 27.4106 57.3635 27.4974 57.1248C27.582 56.8839 27.3672 56.4174 27.2631 55.7274C27.1589 55.0373 27.1719 54.1238 27.2696 53.3838C27.3672 52.6417 27.5495 52.071 27.7838 51.5589C28.0182 51.0446 28.3046 50.5889 28.6388 50.1897C28.9752 49.7904 29.3636 49.4476 29.7585 49.1677C30.1512 48.8878 30.5505 48.6708 30.9324 48.495C31.3143 48.3193 31.6811 48.1826 31.783 48.0741C31.885 47.9656 31.7244 47.8853 31.3317 47.9482C30.9389 48.0111 30.3097 48.2151 29.8149 48.393C29.318 48.5688 28.9534 48.7185 28.4847 49.044C28.0182 49.3695 27.4475 49.8708 26.9961 50.4762C26.5448 51.0816 26.215 51.7868 26.037 52.3597C25.8612 52.9303 25.8374 53.3643 25.833 53.7354C25.8265 54.1065 25.8395 54.4146 25.8678 54.6642C25.896 54.9159 25.9415 55.109 25.9242 55.2978C25.9068 55.4865 25.8265 55.6688 25.6746 55.8728C25.5227 56.0768 25.2927 56.3046 25.0605 56.6236C24.8262 56.9426 24.5853 57.3527 24.3813 57.7867C24.1752 58.2207 24.0037 58.6764 23.8801 59.0258C23.7542 59.373 23.6739 59.6138 23.3658 59.7614C23.0577 59.9089 22.5217 59.9654 21.8078 59.9892C21.0961 60.0109 20.2042 60.0001 19.6009 59.9545C18.9955 59.9089 18.6765 59.8287 18.5008 59.527C18.325 59.2232 18.2903 58.7003 18.4617 58.3075C18.6331 57.9126 19.0085 57.65 19.3752 57.4743C19.7398 57.2985 20.0957 57.2074 20.3452 57.0012C20.5969 56.7951 20.7444 56.4783 20.8681 56.066C20.9962 55.6559 21.096 55.1546 21.1719 54.0935C21.2457 53.0324 21.2913 51.4137 21.2804 50.0228C21.2696 48.6318 21.2001 47.4666 21.1546 46.6854C21.109 45.9043 21.0873 45.505 20.8681 44.9799C20.6512 44.4547 20.2389 43.8037 19.8591 43.207C19.4772 42.6081 19.1235 42.0613 18.657 41.1261C18.1883 40.1908 17.6067 38.8693 17.2943 37.4545C16.9818 36.0397 16.9362 34.5338 17.0729 33.1819C17.2096 31.8301 17.5286 30.6323 17.8997 29.6688C18.2708 28.7054 18.6939 27.9741 19.1561 27.3144C19.6183 26.6526 20.1195 26.0581 20.4558 25.4722C20.7922 24.8863 20.9636 24.3026 20.9701 23.8013C20.9766 23.3001 20.816 22.8769 20.5882 22.5016C20.3603 22.124 20.0631 21.7942 19.7484 21.4969C19.436 21.1996 19.1039 20.9371 18.8089 20.5573C18.5116 20.1754 18.249 19.672 18.0884 19.1642C17.93 18.6565 17.8714 18.1422 17.8541 17.7559C17.8367 17.3675 17.8606 17.1049 17.8714 16.9748C17.8693 16.8316 17.8692 16.8314 18.1426 16.7229Z" fill="black"/>
</svg>
